<?xml version="1.0" encoding="UTF-8"?>
<svg version="1.1" xmlns="http://www.w3.org/2000/svg" width="600" height="600">
<path d="M0 0 C198 0 396 0 600 0 C600 198 600 396 600 600 C402 600 204 600 0 600 C0 402 0 204 0 0 Z " fill="#FEFEFE" transform="translate(0,0)"/>
<path d="M0 0 C1.37694468 11.64453214 1.37694468 11.64453214 -1.6875 16.88671875 C-3.23184829 18.68041494 -4.815229 20.44101354 -6.4296875 22.171875 C-11.05195155 27.2577704 -14.47222074 33.12567443 -18 39 C-18.680625 40.11632812 -19.36125 41.23265625 -20.0625 42.3828125 C-34.87679921 67.73667375 -41.89183432 100.62089542 -34.97949219 129.48608398 C-28.23180959 154.38435686 -12.18753686 175.73892471 10.1394043 188.76367188 C88.00247696 232.84329958 196.7307929 220.11490652 280 199 C281.06557129 198.73251953 282.13114258 198.46503906 283.22900391 198.18945312 C314.50642942 190.21782699 345.71192142 178.77357942 374.33984375 163.8515625 C379.15309412 161.41668451 384.08941791 159.23208277 389 157 C389 170.53 389 184.06 389 198 C373.66022301 205.98082992 358.24322981 212.728131 342.07226562 218.83544922 C339.47250262 219.82089658 336.88252352 220.82594518 334.296875 221.84765625 C325.38851804 225.33950891 316.3562849 228.0125441 307.11376953 230.44287109 C305.19690578 230.94810129 303.28376198 231.46739313 301.37109375 231.98828125 C298.31820946 232.81716492 295.26150171 233.62861287 292.20019531 234.42578125 C290.61540899 234.83938727 289.03153102 235.25647935 287.44824219 235.67578125 C210.07703057 256.08977289 117.96816044 264.77920411 41 238 C40.30600098 237.76313477 39.61200195 237.52626953 38.89697266 237.28222656 C18.21878592 230.1531662 -1.36991523 220.36234594 -18 206 C-18.77859375 205.34257812 -19.5571875 204.68515625 -20.359375 204.0078125 C-43.86376359 183.73724918 -55.74962237 156.45163113 -59 126 C-61.74593912 86.96114236 -48.86321527 51.8136739 -23.47509766 22.22265625 C-20.08817657 18.37927973 -16.57076585 14.67212201 -13 11 C-12.48421387 10.46375 -11.96842773 9.9275 -11.43701172 9.375 C-2.40286959 0 -2.40286959 0 0 0 Z " fill="#107EC2" transform="translate(89,225)"/>
<path d="M0 0 C3.23546017 0.01074336 6.47036678 0.00002051 9.70581055 -0.01269531 C21.64009402 -0.0202493 33.32872823 0.50054807 45.16896057 2.01220703 C47.22038208 2.26666822 49.27310392 2.4881962 51.3293457 2.69995117 C76.31669154 5.29579652 101.77595713 11.80616246 124.17260742 23.26074219 C125.36112305 23.82664063 126.54963867 24.39253906 127.77416992 24.97558594 C141.52688253 31.58228121 152.8947216 40.12709809 164.17260742 50.26074219 C164.87385742 50.87691406 165.57510742 51.49308594 166.29760742 52.12792969 C179.19057946 64.12555644 188.0414087 82.36631375 192.17260742 99.26074219 C192.50905273 100.56205078 192.50905273 100.56205078 192.85229492 101.88964844 C195.86067954 116.04554044 195.66431338 133.2280371 192.17260742 147.26074219 C191.88063477 148.54271484 191.88063477 148.54271484 191.58276367 149.85058594 C183.69845584 181.62108082 163.51952349 209.80986303 135.86010742 227.44824219 C117.69246486 238.26074219 117.69246486 238.26074219 113.17260742 238.26074219 C111.12085148 212.29206781 111.12085148 212.29206781 114.25512695 206.13378906 C117.04301237 203.16082801 120.65047683 201.67295107 124.36352539 200.14208984 C127.55112608 198.58915618 129.9511596 196.20180996 132.48510742 193.76074219 C133.23256226 193.05522217 133.23256226 193.05522217 133.99511719 192.33544922 C152.99209569 174.21447588 164.81511727 151.94544371 165.57324219 125.46777344 C165.82089777 104.34324463 160.31600033 85.35278035 146.17260742 69.26074219 C145.5925293 68.53886719 145.01245117 67.81699219 144.41479492 67.07324219 C134.8425143 55.53844378 122.30045863 48.09205075 109.17260742 41.26074219 C107.43624023 40.33455078 107.43624023 40.33455078 105.66479492 39.38964844 C83.84244625 28.42965453 58.48633026 23.48977503 34.29638672 21.49438477 C32.17260742 21.26074219 32.17260742 21.26074219 29.65307617 20.75317383 C24.57682612 20.03496421 19.53231606 20.03732581 14.41088867 19.98730469 C13.24840103 19.97477661 12.08591339 19.96224854 10.88819885 19.94934082 C-18.04678853 19.69902592 -46.23062846 20.66950827 -74.82739258 25.26074219 C-75.58240051 25.38145081 -76.33740845 25.50215942 -77.11529541 25.62652588 C-129.87692225 34.15245635 -179.53221371 51.77902439 -227.82739258 74.26074219 C-227.82739258 70.63074219 -227.82739258 67.00074219 -227.82739258 63.26074219 C-222.68656892 60.37401922 -217.53505411 57.50778302 -212.37084961 54.66308594 C-210.76592436 53.7782049 -209.16251908 52.89055621 -207.5612793 51.99902344 C-182.25711117 37.9581921 -155.31534795 28.04868607 -127.82739258 19.26074219 C-126.82111816 18.93879883 -125.81484375 18.61685547 -124.77807617 18.28515625 C-99.23003148 10.31518016 -71.60183775 5.13808337 -44.98535156 2.57714844 C-42.51619935 2.32975599 -40.05678961 2.05213073 -37.59326172 1.75683594 C-25.04516446 0.30598262 -12.62600086 -0.04971996 0 0 Z " fill="#127FC3" transform="translate(375.827392578125,121.7392578125)"/>
<path d="M0 0 C12.15823933 9.57814784 17.60235399 22.30939478 20.125 37.3125 C20.125 43.9125 20.125 50.5125 20.125 57.3125 C-3.305 57.3125 -26.735 57.3125 -50.875 57.3125 C-47.95595297 68.01567243 -46.31653504 73.0262505 -37.875 79.3125 C-30.35373978 81.81958674 -19.44074927 81.93146026 -12.0234375 79.04296875 C-8.21559225 77.13904613 -4.89369519 75.33119519 -1.875 72.3125 C1.55669122 72.63153319 3.22807858 74.05733076 5.578125 76.47265625 C6.196875 77.10107422 6.815625 77.72949219 7.453125 78.37695312 C8.08734375 79.03630859 8.7215625 79.69566406 9.375 80.375 C10.34953125 81.36983398 10.34953125 81.36983398 11.34375 82.38476562 C12.9444676 84.02079317 14.53776193 85.66340912 16.125 87.3125 C7.42861018 98.27285762 -4.16943889 103.43457456 -17.875 105.3125 C-33.68531528 106.32683531 -48.35570993 104.78991747 -61.12890625 94.49609375 C-71.53801085 84.71904104 -77.64762829 71.38963126 -78.25390625 57.17578125 C-78.59920927 37.22641559 -76.69986117 20.65936423 -62.875 5.3125 C-45.68700842 -10.07150413 -19.43481453 -13.21145465 0 0 Z " fill="#117EC2" transform="translate(405.875,256.6875)"/>
<path d="M0 0 C15.0665625 -0.061875 15.0665625 -0.061875 30.4375 -0.125 C33.5923999 -0.14320801 36.7472998 -0.16141602 39.99780273 -0.18017578 C42.51806468 -0.18602087 45.03832852 -0.19111639 47.55859375 -0.1953125 C48.85124146 -0.20554443 50.14388916 -0.21577637 51.47570801 -0.22631836 C62.10123026 -0.22836035 70.24367035 0.72623414 79 7 C79.886875 7.5775 80.77375 8.155 81.6875 8.75 C87.41856173 14.32616817 89.87266003 20.94623919 90.12025452 28.82820129 C90.12313692 30.34225356 90.12053251 31.85632254 90.11352539 33.37036133 C90.11367142 34.20014496 90.11381744 35.02992859 90.1139679 35.88485718 C90.11327333 38.61727547 90.10550229 41.34962492 90.09765625 44.08203125 C90.09579045 45.9806057 90.09436731 47.87918063 90.09336853 49.77775574 C90.0895561 54.76721534 90.0797367 59.75664568 90.06866455 64.74609375 C90.05842303 69.84049077 90.05386504 74.93489252 90.04882812 80.02929688 C90.03811328 90.01954615 90.0205268 100.00976606 90 110 C81.09 110 72.18 110 63 110 C62.9906543 107.60274658 62.98130859 105.20549316 62.97167969 102.7355957 C62.93790326 94.81255646 62.88235068 86.88977751 62.81609726 78.9669466 C62.77659827 74.16357881 62.7444217 69.36039501 62.72900391 64.55688477 C62.71385323 59.92066182 62.6794361 55.28494461 62.63169098 50.64894676 C62.61686075 48.88078394 62.60895804 47.11254892 62.60811615 45.34432411 C62.60574962 42.86612743 62.57869713 40.38933198 62.54589844 37.91137695 C62.5509288 37.18129425 62.55595917 36.45121155 62.56114197 35.69900513 C62.46236398 30.87111038 61.42891111 28.39145103 58 25 C49.03587397 20.51793698 38.01581199 23.35770757 28 23 C28 51.71 28 80.42 28 110 C18.76 110 9.52 110 0 110 C0 73.7 0 37.4 0 0 Z " fill="#117EC2" transform="translate(161,250)"/>
<path d="M0 0 C9.24 0 18.48 0 28 0 C28 9.57 28 19.14 28 29 C34.93 29 41.86 29 49 29 C49 36.59 49 44.18 49 52 C42.07 52 35.14 52 28 52 C28.08554675 59.49333929 28.17932028 66.98648932 28.28752708 74.47953415 C28.33744564 77.95897189 28.38377582 81.43837993 28.421875 84.91796875 C28.46584663 88.91946447 28.52547971 92.92059416 28.5859375 96.921875 C28.59748871 98.16990906 28.60903992 99.41794312 28.62094116 100.70379639 C28.64081085 101.86469788 28.66068054 103.02559937 28.68115234 104.22167969 C28.69447601 105.24316101 28.70779968 106.26464233 28.7215271 107.31707764 C29.00542502 110.05226684 29.50940149 111.70509328 31 114 C34.16965142 115.58482571 37.63744541 115.37852823 41.125 115.5625 C43.72375 115.706875 46.3225 115.85125 49 116 C49 123.59 49 131.18 49 139 C19.62790061 140.17662713 19.62790061 140.17662713 8.88671875 131.2421875 C1.73265375 124.16218115 -0.44215696 114.10327359 -0.49768066 104.33583069 C-0.48329956 103.32234055 -0.46891846 102.3088504 -0.45410156 101.26464844 C-0.45468567 100.16074265 -0.45526978 99.05683685 -0.45587158 97.91947937 C-0.45311252 94.31577731 -0.42212332 90.71293032 -0.390625 87.109375 C-0.38315488 84.59304252 -0.3774656 82.07670417 -0.37347412 79.56036377 C-0.35982692 73.64261009 -0.32838871 67.72516587 -0.28807616 61.80753827 C-0.23871903 54.39908973 -0.2174403 46.99060248 -0.1953125 39.58203125 C-0.15254908 26.38783879 -0.082249 13.19400546 0 0 Z " fill="#127FC3" transform="translate(272,221)"/>
<path d="M0 0 C9.24 0 18.48 0 28 0 C28 50.82 28 101.64 28 154 C19.61507876 153.06834208 13.20412841 152.21296061 7.140625 146.13671875 C0.48067495 137.64693094 -0.43418289 130.57114396 -0.34057617 119.99633789 C-0.34101425 118.69809082 -0.34145233 117.39984375 -0.34190369 116.06225586 C-0.3427611 112.51926876 -0.32517688 108.97658908 -0.30418181 105.43367314 C-0.28537242 101.72479533 -0.28366123 98.01590973 -0.28010559 94.30699158 C-0.2707976 87.29125393 -0.24620081 80.27565726 -0.21605712 73.25998157 C-0.1824742 65.26966472 -0.16601734 57.27934098 -0.15097082 49.28897107 C-0.11965002 32.85921861 -0.06465368 16.42966024 0 0 Z " fill="#117EC2" transform="translate(442,205)"/>
<path d="M0 0 C9.24 0 18.48 0 28 0 C28 36.63 28 73.26 28 111 C16.76703159 109.87670316 11.705325 108.488681 4.54296875 100.390625 C0.44449561 94.0405856 -0.43829333 88.19390111 -0.34057617 80.83007812 C-0.34101425 79.95108856 -0.34145233 79.072099 -0.34190369 78.16647339 C-0.33982908 75.2878323 -0.31656122 72.40978818 -0.29296875 69.53125 C-0.28736807 67.52486489 -0.2831002 65.51847565 -0.28010559 63.51208496 C-0.26869404 58.25130735 -0.23925874 52.9907813 -0.20599365 47.73010254 C-0.17521303 42.35395713 -0.16158321 36.97777077 -0.14648438 31.6015625 C-0.11438535 21.06758047 -0.06164769 10.53385059 0 0 Z " fill="#127FC3" transform="translate(109,250)"/>
<path d="M0 0 C5.29709112 3.51799221 8.5940154 8.96933723 10.43359375 14.9921875 C10.43359375 17.3021875 10.43359375 19.6121875 10.43359375 21.9921875 C-3.75640625 21.9921875 -17.94640625 21.9921875 -32.56640625 21.9921875 C-31.4885528 12.29150649 -30.20324964 7.54418208 -22.69140625 1.4921875 C-16.00458894 -2.58486694 -7.24571686 -2.84535 0 0 Z " fill="#F8FBFD" transform="translate(387.56640625,273.0078125)"/>
<path d="M0 0 C9.24 0 18.48 0 28 0 C28 8.91 28 17.82 28 27 C18.76 27 9.52 27 0 27 C0 18.09 0 9.18 0 0 Z " fill="#1681C4" transform="translate(109,209)"/>
<path d="M0 0 C3.70390021 2.02666238 5.65363011 3.48044516 8 7 C8.76579737 13.67337705 8.76579737 13.67337705 6.94921875 16.8203125 C4.6078242 19.6797147 2.74140281 21.76051435 -0.98828125 22.2734375 C-5.48027315 22.46972622 -7.34969305 22.51482633 -11 19.625 C-13.76414986 15.99705331 -14.39306028 13.72877309 -14.359375 9.10546875 C-13.72418186 5.38406547 -11.66020984 3.59687151 -9 1 C-5.89046621 -0.5547669 -3.43733239 -0.28644437 0 0 Z " fill="#EAF3F9" transform="translate(503,205)"/>
<path d="M0 0 C3.70390021 2.02666238 5.65363011 3.48044516 8 7 C8.76579737 13.67337705 8.76579737 13.67337705 6.94921875 16.8203125 C4.6078242 19.6797147 2.74140281 21.76051435 -0.98828125 22.2734375 C-5.48027315 22.46972622 -7.34969305 22.51482633 -11 19.625 C-13.76414986 15.99705331 -14.39306028 13.72877309 -14.359375 9.10546875 C-13.72418186 5.38406547 -11.66020984 3.59687151 -9 1 C-5.89046621 -0.5547669 -3.43733239 -0.28644437 0 0 Z M-12 7 C-12.81144575 9.85444748 -12.75608333 12.13727226 -12 15 C-10.00835994 17.98746009 -8.63318045 19.66366185 -5.02734375 20.40625 C-1.80405321 20.55084621 0.59359221 20.21883496 3.4375 18.6875 C5.75556859 16.18398593 6.00386574 13.97017861 6.4375 10.625 C6.32682473 6.80191935 6.32682473 6.80191935 3.375 4.0625 C-3.06694591 0.12575528 -7.06358673 1.35838484 -12 7 Z " fill="#3592CB" transform="translate(503,205)"/>
<path d="M0 0 C3.0625 0.125 3.0625 0.125 5.0625 1.125 C5.0625 2.115 5.0625 3.105 5.0625 4.125 C2.0925 3.63 2.0925 3.63 -0.9375 3.125 C-0.9375 4.445 -0.9375 5.765 -0.9375 7.125 C0.3825 7.125 1.7025 7.125 3.0625 7.125 C3.0625 8.115 3.0625 9.105 3.0625 10.125 C3.7225 10.125 4.3825 10.125 5.0625 10.125 C5.3925 11.445 5.7225 12.765 6.0625 14.125 C5.0725 14.125 4.0825 14.125 3.0625 14.125 C2.77375 13.485625 2.485 12.84625 2.1875 12.1875 C1.23426549 9.97293921 1.23426549 9.97293921 -0.9375 9.125 C-0.9375 10.775 -0.9375 12.425 -0.9375 14.125 C-1.9275 14.125 -2.9175 14.125 -3.9375 14.125 C-3.96435938 11.97923363 -3.98383088 9.83337355 -4 7.6875 C-4.01160156 6.49253906 -4.02320313 5.29757813 -4.03515625 4.06640625 C-3.90566728 0.16619861 -3.90566728 0.16619861 0 0 Z " fill="#3290CA" transform="translate(498.9375,208.875)"/>
<path d="M0 0 C0 0.66 0 1.32 0 2 C-2.31 2.33 -4.62 2.66 -7 3 C-7.33 7.29 -7.66 11.58 -8 16 C-7.34 16 -6.68 16 -6 16 C-6.33 16.66 -6.66 17.32 -7 18 C-9.54030191 15.96775847 -11.64036214 14.28331207 -12.54296875 11.0625 C-12.69937471 8.83054465 -12.61258294 7.1549017 -12 5 C-8.26969489 0.73679416 -5.65120792 -0.67276285 0 0 Z " fill="#DAEAF5" transform="translate(503,207)"/>
<path d="M0 0 C0.33 0 0.66 0 1 0 C1.36923077 4.55384615 1.36923077 4.55384615 -0.5 6.8125 C-0.995 7.204375 -1.49 7.59625 -2 8 C-2 7.01 -2 6.02 -2 5 C-3.32 5 -4.64 5 -6 5 C-6 3.68 -6 2.36 -6 1 C-3.03 1.495 -3.03 1.495 0 2 C0 1.34 0 0.68 0 0 Z " fill="#8BC0E1" transform="translate(504,211)"/>
<path d="M0 0 C1.98 0 3.96 0 6 0 C6 0.99 6 1.98 6 3 C6.66 3 7.32 3 8 3 C8.33 4.32 8.66 5.64 9 7 C8.01 7 7.02 7 6 7 C5.731875 6.360625 5.46375 5.72125 5.1875 5.0625 C4.11332248 2.66868314 4.11332248 2.66868314 1 2 C0.67 3.32 0.34 4.64 0 6 C0 4.02 0 2.04 0 0 Z " fill="#1F86C6" transform="translate(496,216)"/>
<path d="M0 0 C0.33 0 0.66 0 1 0 C1 3.3 1 6.6 1 10 C0.34 10 -0.32 10 -1 10 C-2.38125018 7.23749964 -2.19079306 5.05268901 -2 2 C-1.34 1.34 -0.68 0.68 0 0 Z " fill="#F2F8FB" transform="translate(493,212)"/>
<path d="M0 0 C0.70125 0.309375 1.4025 0.61875 2.125 0.9375 C5.08936657 2.03302678 7.87698108 2.56422992 11 3 C11 3.33 11 3.66 11 4 C4.64102564 5.34516765 4.64102564 5.34516765 1.5625 3.6875 C0 2 0 2 0 0 Z " fill="#479BD0" transform="translate(491,222)"/>
</svg>
