<svg xmlns="http://www.w3.org/2000/svg" viewBox="0 0 200 200"><g fill="none" stroke-width="2"><path stroke="#9babb3" stroke-opacity=".541" d="M95.25 155.46q-4.65-1.24-9.5-1.17" vector-effect="non-scaling-stroke"/><path stroke="#6f88a4" d="M72.29 185.5q1.54 1.14 1.13 3.22a1.35 1.34 6.6 0 0 1.27 1.6l6.79.25q.81.03.11-.38l-.55-.33q-.35-.21-.3-.61.18-1.71-.49-3.25" vector-effect="non-scaling-stroke"/><path stroke="#99b0cc" d="M81.29 168q.51-1.19-.33-2.25" vector-effect="non-scaling-stroke"/><path stroke="#6f88a4" d="m80.96 165.75-.5-3.75" vector-effect="non-scaling-stroke"/><path stroke="#617faf" d="m80.96 165.75-1.72 1.34q-.43.33-.42.88c0 2.5-.55 17.75 1.43 18.03" vector-effect="non-scaling-stroke"/><path stroke="#607a98" d="M80.29 162q.04.42-.28.51-.92.25-.97-.7l-.21-3.7q-.05-.81-.83-.6-1.99.53-4-.1a.73.72-87.2 0 0-.92.84q.55 2.65-1.24 4.63-.34.38-.34.89v1.79q0 .58.52.86 1.9 1.02.38 2.64M70.79 167.75q-2.84-7.39-10.56-5.7-3.9.85-4.09 4.89-.36 7.63-.04 18.49c.15 5.44 4.34 5.76 8.55 5.52 3.93-.22 5.68-2.8 6.06-6.45" vector-effect="non-scaling-stroke"/><path stroke="#607a98" d="M62.75 185.75q-.46-.13-.69.13a.37.37 0 0 0 .06.54q.76.57 1.35.23.41-.24 0-.48l-.72-.42M46.46 160.5q-1.62-1.12-1.11-3.3a1.47 1.47 0 0 0-1.44-1.8l-7.83.03q-.67.01-.66.67l.08 33.42q0 .66.67.67l5.04.06" vector-effect="non-scaling-stroke"/><path stroke="#607a98" d="M41.29 171.75q-.43-2.97-.47-5.98-.02-1.69.3-.03l4.5 23.87q.11.59.72.6l6.27.18q.55.01.7-.52c.66-2.17-.35-4.68-.31-6.36q.31-12.94.56-26.93.02-1.17-1.15-1.14l-3.26.09q-.57.01-.57.57l-.1 22.69q-.01 1.28-.22.01-1.06-6.18-.8-12.3M158.54 173l-.14.24q-.13.23-.36.09-1.43-.87-1.58-2.58" vector-effect="non-scaling-stroke"/><path stroke="#7f919d" stroke-opacity=".541" d="M156.46 170.75q.57-1.8.19-3.75a.36.36 0 0 0-.69-.06q-.74 2.08.29 3.85" vector-effect="non-scaling-stroke"/><path stroke="#607a98" d="M156.25 170.79q.18.27-.06.51-.37.37-.56-.12-.78-2.11-.16-4.29.13-.46.6-.57c2.53-.58 1.68 4.03 1.79 5.35q.05.58.63.58h4.49q.48 0 .52-.48.21-2.03.15-4.05c-.21-7.29-12.19-8.45-13.97-1.74q-1.79 6.73 3.9 11.36.17.14.17.36 0 .17-.04.3M153.75 178.71l.34-.24q.29-.2.59-.01 4.11 2.59 2.9 7.64-.5 2.07-1.89.46-.49-.57-.4-1.31" vector-effect="non-scaling-stroke"/><path stroke="#708aa6" d="m155.29 185.25.46.21" vector-effect="non-scaling-stroke"/><path stroke="#7f919d" stroke-opacity=".541" d="M155.75 185.46q.2.25.49.35.47.15.49-.35c.06-1.54.66-4.57-1.44-4.96" vector-effect="non-scaling-stroke"/><path stroke="#607a98" d="M155.29 180.5q-2.49-1.46-5.28-.53-.5.16-.5.69c-.05 3.89-.64 6.05 1.84 9.35q.3.39.78.5 4.67 1.02 9.37-.01" vector-effect="non-scaling-stroke"/><path stroke="#6c7b83" stroke-opacity=".706" d="m140.46 191 .33-1" vector-effect="non-scaling-stroke"/><path stroke="#607a98" d="m140.79 190 5.98.41q.58.04.57-.55-.22-11.9.16-23.79c.12-3.83-4.87-5.62-7.43-2.61q-.31.37-.74.14-3.14-1.67-7.08-1.14" vector-effect="non-scaling-stroke"/><path stroke="#6c7b83" stroke-opacity=".706" d="M139.75 190.96q-.13-.35-.07-.71" vector-effect="non-scaling-stroke"/><path stroke="#334a6a" stroke-opacity=".71" d="M140.79 190c-.12-2.28-.16-21.96-.56-22.3q-.51-.42-.51.24l-.04 22.31" vector-effect="non-scaling-stroke"/><path stroke="#607a98" d="m139.68 190.25-6.93-.04" vector-effect="non-scaling-stroke"/><path stroke="#3e526c" stroke-opacity=".855" d="m132.75 190.21-.54-1.46" vector-effect="non-scaling-stroke"/><path stroke="#33517c" stroke-opacity=".541" d="m156.25 170.79.21-.04" vector-effect="non-scaling-stroke"/><path stroke="#607a98" d="m160.02 174.57 3.24 3.87q.36.43.35.99l-.2 8.06q-.01.48-.29.86l-1.62 2.15" vector-effect="non-scaling-stroke"/><path stroke="#33517c" stroke-opacity=".541" d="M155.29 180.5v.5" vector-effect="non-scaling-stroke"/><path stroke="#486795" d="M155.29 181v4.25" vector-effect="non-scaling-stroke"/><path stroke="#526e97" stroke-opacity=".541" d="M155.75 185.46q.27-2.31-.46-4.46" vector-effect="non-scaling-stroke"/><path stroke="#6e7b81" stroke-opacity=".851" d="M131.25 190.21q.75.62 1.5 0" vector-effect="non-scaling-stroke"/><path stroke="#3e526c" stroke-opacity=".855" d="m131.96 189-.71 1.21" vector-effect="non-scaling-stroke"/><path stroke="#607a98" d="M131.25 190.21c-1.7.16-6.06.57-6.3-1.04q-.1-.72-.75-.4-.48.23-.7.73-.24.54-.76.8-2.22 1.1-4.62.1a1.99 1.98 7.1 0 1-1.19-1.52c-.63-4.04-1.49-11.92 2.57-14.34" vector-effect="non-scaling-stroke"/><path stroke="#486795" d="M119.5 174.54q2.97-1.09 5.14-3.35.33-.34.29-.82l-.26-3.05q-.04-.52-.49-.78l-.42-.24q-.63-.36-.7.36-.04.37.23.59" vector-effect="non-scaling-stroke"/><path stroke="#33517c" stroke-opacity=".541" d="m123.29 167.25-.25.25" vector-effect="non-scaling-stroke"/><path stroke="#486795" d="M123.04 167.5q-.11-.3-.57-.25-.53.06-.45.59.47 2.91-1.59 4.57" vector-effect="non-scaling-stroke"/><path stroke="#708aa6" d="m119.5 174.54-1-.08" vector-effect="non-scaling-stroke"/><path stroke="#526e97" stroke-opacity=".541" d="m123.04 167.5-.21 3.84q-.03.6.51.34.79-.36.7-1.21-.03-.32.05-.62.47-1.74-.8-2.6" vector-effect="non-scaling-stroke"/><path stroke="#607a98" d="m131.13 167.56-2.03-4.11q-.25-.49-.75-.7-4.36-1.83-8.35-.7c-3.43.97-3.46 6.03-3.53 8.88q-.02.56.46.86 1.35.84 3.5.62" vector-effect="non-scaling-stroke"/><path stroke="#708aa6" d="m120.43 172.41-2.93.3" vector-effect="non-scaling-stroke"/><path stroke="#6c7b83" stroke-opacity=".706" d="M116 172.71q-.15-1.26-.25-5.21-.01-.4-.33-.42-.43-.03-.39.4l.51 5.27" vector-effect="non-scaling-stroke"/><path stroke="#607a98" d="m99.79 186.25.49.01q.52.01.47.53c-.54 4.95 7.43 4.52 10.29 3.88q.48-.1.83-.45l1.75-1.75q.43-.42.42-1.02l-.01-7.13q0-.47-.46-.47l-3.83-.07q-.52-.01-.65.49c-.54 2.03.67 6.66-2.34 6.52a.79.78-88.9 0 1-.75-.79l.01-7.94a.8.8 0 0 1 .8-.8l6.73-.01a.76.76 0 0 0 .75-.79c-.13-3.18-.3-6.12-.12-9.29.31-5.26-7.24-6.25-10.83-4.76-2 .83-2.54 2.75-2.96 4.67-.06.28-.34.54-.63.38" vector-effect="non-scaling-stroke"/><path stroke="#607a98" d="M99.5 173.79q2.01-2.15.29-4.54" vector-effect="non-scaling-stroke"/><path stroke="#98aca7" stroke-opacity=".71" d="m96 12.46-12.04 4.29" vector-effect="non-scaling-stroke"/><path stroke="#334a6a" stroke-opacity=".71" d="M83.96 16.75q-2.91.48-5.46 1.96" vector-effect="non-scaling-stroke"/><path stroke="#98aca7" stroke-opacity=".71" d="m78.5 18.71-4.92 1.96" vector-effect="non-scaling-stroke"/><path stroke="#334a6a" stroke-opacity=".71" d="M73.58 20.67q-3.77.46-6.58 2.79" vector-effect="non-scaling-stroke"/><path stroke="#98aca7" stroke-opacity=".71" d="m67 23.46-8.75 3.08" vector-effect="non-scaling-stroke"/><path stroke="#334a6a" stroke-opacity=".71" d="M58.25 26.54q-2.38-.57-3 1.42" vector-effect="non-scaling-stroke"/><path stroke="#98aca7" stroke-opacity=".71" d="M55.25 27.96 43.5 32.54" vector-effect="non-scaling-stroke"/><path stroke="#879aaf" stroke-opacity=".71" d="M43.5 32.54q-2.34.73-4.04 2.46" vector-effect="non-scaling-stroke"/><path stroke="#6e82a3" stroke-opacity=".71" d="m39.46 35-.21.04" vector-effect="non-scaling-stroke"/><path stroke="#828f93" stroke-opacity=".71" d="m162.54 35.75-4-2.25" vector-effect="non-scaling-stroke"/><path stroke="#98aca7" stroke-opacity=".71" d="m158.54 33.5-26.08-10.75" vector-effect="non-scaling-stroke"/><path stroke="#334a6a" stroke-opacity=".71" d="M132.46 22.75q-1.43-1.04-3.21-1.21" vector-effect="non-scaling-stroke"/><path stroke="#98aca7" stroke-opacity=".71" d="M129.25 21.54q-4.2-1.19-8-3.33" vector-effect="non-scaling-stroke"/><path stroke="#334a6a" stroke-opacity=".71" d="M121.25 18.21q-1.84-1.14-4-1.17" vector-effect="non-scaling-stroke"/><path stroke="#98aca7" stroke-opacity=".71" d="M117.25 17.04 112 14.71" vector-effect="non-scaling-stroke"/><path stroke="#334a6a" stroke-opacity=".71" d="M112 14.71q-1.25-1.18-3-.96M109 13.75q-1.28-1.05-3-1M106 12.75q-4.93-2.57-10-.29" vector-effect="non-scaling-stroke"/><path stroke="#7f9db2" d="M106 12.75q-4.98-.74-10-.29M106 12.75q1.26 1.14 3 1M109 13.75q1.29 1.11 3 .96M117.25 17.04q1.72 1.49 4 1.17M129.25 21.54q1.28 1.42 3.21 1.21" vector-effect="non-scaling-stroke"/><path stroke="#b7cecf" d="M158.54 33.5q-2.1 2.56-5.6 2.54" vector-effect="non-scaling-stroke"/><path stroke="#bbd6e3" d="M152.94 36.04q-4.25.46-8.02 2.45c-2.62 1.39-5.29 1.99-7.85 3.4-2.09 1.16-4.49 1.64-6.55 2.99-1.34.89-2.1.91-3.6 1.1q-.48.06-.86.37-1.61 1.29-3.63 1.15-.51-.03-.92.27-1.26.94-2.68 1.42-1.77.6-2.81 1.2c-3.51 2.04-7.21 2.87-10.94 4.29-2.77 1.07-5.07.43-7.98.85q-.57.08-1.08-.16-4.39-2.11-9.09-3.34-.5-.14-.73-.61l-.31-.65q-.23-.48-.74-.63L79.9 48.6q-.41-.11-.7-.42-.85-.89-2.05-.68-.49.08-.87-.24-2.52-2.16-5.74-2.41-.52-.04-.98-.27l-6.92-3.4q-.5-.24-.92-.58-1.16-.95-2.74-.86-.5.03-.92-.26-5.32-3.75-11.02-4.28c-1.46-.14-4.89-.15-3.54-2.66" vector-effect="non-scaling-stroke"/><path stroke="#7f9db2" d="m55.25 27.96 3-1.42M67 23.46q3.52-.87 6.58-2.79M78.5 18.71q2.95-.37 5.46-1.96" vector-effect="non-scaling-stroke"/><path stroke="#abc1d5" d="M152.94 36.04q-4.03 2.57-6.63 3.52-10.13 3.71-19.81 8.48" vector-effect="non-scaling-stroke"/><path stroke="#9db8e0" d="M126.5 48.04q-2.11.29-3.75 1.67" vector-effect="non-scaling-stroke"/><path stroke="#abc1d5" d="M122.75 49.71c-2.28.85-8.78 3.13-8.79 4.04" vector-effect="non-scaling-stroke"/><path stroke="#9db8e0" d="M113.96 53.75q-2.65.07-4.71 1.71" vector-effect="non-scaling-stroke"/><path stroke="#abc1d5" d="M109.25 55.46q-2.4.72-4.83 1.43c-5.69 1.68-8.17-1.52-13.13-1.64" vector-effect="non-scaling-stroke"/><path stroke="#9db8e0" d="M91.29 55.25Q69.63 45.8 47.8 36.76c-2.81-1.16-5.38-1.13-8.34-1.76" vector-effect="non-scaling-stroke"/><path stroke="#7f8b8f" stroke-opacity=".855" d="m162.54 35.75 1 1.5" vector-effect="non-scaling-stroke"/><path stroke="#98abb6" d="M163.54 37.25q.73 4.07-.66 7.72c-1.85 4.88-.86 12.85-1.28 18.29q-.86 11.39-1.28 22.83c-.12 3.22-1.28 6.91-.95 10.66q.69 7.96-.89 15.74-.3 1.49 1.12 2.39.42.27.47.75l.22 2.12" vector-effect="non-scaling-stroke"/><path stroke="#7f8b8f" stroke-opacity=".855" d="M160.29 117.75q-2.35 2.52-3.32 3.01-23.82 12.05-47.7 24.05-5.31 2.66-11.27 1.4" vector-effect="non-scaling-stroke"/><path stroke="#89a2bf" d="m98 146.21-.5-1.71" vector-effect="non-scaling-stroke"/><path stroke="#abc1d5" d="m97.5 144.5 3.79.97q.51.13.98-.12 1.05-.58 1.48-1.81" vector-effect="non-scaling-stroke"/><path stroke="#cad9df" d="m103.75 143.54 1.54-1.54" vector-effect="non-scaling-stroke"/><path stroke="#b9c9d1" d="M105.29 142q3.6-2.41 4.71-6.71" vector-effect="non-scaling-stroke"/><path stroke="#b0c1c9" d="m110 135.29-.69 2.97q-.14.6.35.23c2.49-1.88 3.34-4.9 4.97-6.84 3.61-4.28 7.75-8.05 10.7-12.68 2.94-4.61 4.41-7.98 6.65-11.71 8.37-13.97 15.58-28.95 22.99-43.48 1.56-3.08 1.24-6.19 3.38-9.24 2.2-3.13 2.87-5.57 3.24-9.03" vector-effect="non-scaling-stroke"/><path stroke="#cad9df" d="m161.59 45.51.68-4.94q.08-.6-.46-.89c-3.85-2.02-19.08 5.61-23.44 7.43-2.03.85-4.42 1.19-6.65 2.17-4.32 1.88-7.03 2.89-10.48 4.47" vector-effect="non-scaling-stroke"/><path stroke="#aecedd" d="M121.24 53.75c-4.25 1.9-18.13 7.44-22.24 6.04" vector-effect="non-scaling-stroke"/><path stroke="#99b0cc" d="m99 59.79.5-.05q.83-.08 0-.21l-2.31-.35q-.47-.07-.69-.48c-1.44-2.63-3.33-1.82-5.21-3.45M109.25 55.46q2.73.1 4.71-1.71M122.75 49.71q2.17-.13 3.75-1.67" vector-effect="non-scaling-stroke"/><path stroke="#a0c5e8" d="M99 59.79q-1.59-.14-3.16.42-.52.18-1.03-.04Q69.23 48.85 43 39.15a1.85.63-47.8 0 0-1.45.8c-1.09 1.08 10.57 5.15 11.59 5.53q.46.17.81.51.66.65 1.58.54.49-.06.92.17l5.3 2.84" vector-effect="non-scaling-stroke"/><path stroke="#9db8e0" d="M61.75 49.54q.94 1.12 1.43 1.32 4.84 1.92 9.26 4.72.43.27.93.17 2.4-.49 3.95 1.48.33.42.86.46c2.15.14 3.36 1.67 4.99 2.26 4.04 1.48 7.15 2.71 10.08 5.97q.35.38.84.52c3.34.95 3.12 6.11 3.08 9.77q-.01.49-.3.88-.86 1.13-.86 1.91-.02 26.17 0 52.37c0 4.55-2.05 7.66 1.39 12.19q.21.28.1.94" vector-effect="non-scaling-stroke"/><path stroke="#7b99ca" d="M97.5 144.5q-2.87-1.71-4.95-4.3" vector-effect="non-scaling-stroke"/><path stroke="#82a0d3" d="M92.55 140.2q-3.11-8.51-4.78-21.95c-.84-6.72-3.67-13.67-7.58-20.12q-9.9-16.3-12.7-22.62-3.25-7.35-5.69-11.43-1.17-1.96-3.4-3.33-7.15-4.39-14.14-9.08c-2.12-1.42-2.95-3.32-4.76-5.13" vector-effect="non-scaling-stroke"/><path stroke="#7b99ca" d="m39.5 46.54-.29.96" vector-effect="non-scaling-stroke"/><path stroke="#728fbd" d="M39.21 47.5q-.06-1.61-.58-3.08c-1.03-2.91-.51-5.04-.42-7.92" vector-effect="non-scaling-stroke"/><path stroke="#c8dedf" d="M109.14 133.07q2.7-12 1.82-24.32M141.25 58.96l4.54-2.44q.43-.23.9-.33c2.01-.41 2.99-2.32 5.06-3.15M156.04 51q2.41-.32 3.21-2.46" vector-effect="non-scaling-stroke"/><path stroke="#c1d1d8" d="M110 135.29q2.52-8.61 2.69-16.55c.07-3.56.94-6.62 1.18-10 .25-3.52.86-5.91 2.88-9.04q5.93-9.17 11.04-18.86.24-.44.24-.94 0-2.57 2-3.94.41-.28.61-.73c2.05-4.79 1.57-8 6.83-10.3q.4-.18.73-.46.51-.44.7-.97.16-.47.59-.71 1.71-.96 3.33-2.07c1.45-1 3.35-1.11 4.66-2.75q.3-.38.76-.53c3.26-1.04 10.24-5.7 11.76-8.98" vector-effect="non-scaling-stroke"/><path stroke="#7292c5" d="M39.5 46.54c.69 3.24 2.39 5.65 2.82 8.78.95 6.99 1.33 14.29 3.45 20.72 4.18 12.62 11.07 24.62 17.65 36.12.71 1.23 2.11 2.53 2.76 3.94 2.62 5.81 9.79 11.12 15.12 14.31 4.07 2.44 6.45 5 9.44 8.28q.64.71.27-.2-.04-.08-.1-.16-1.61-2.06.26-.2.91.9 1.38 2.07" vector-effect="non-scaling-stroke"/><path stroke="#b2d6f1" d="M99.46 69.25c-1.81-1.59-4.61-4.9-6.86-5.31q-.5-.09-.85-.45-2.47-2.54-4.57-3.41-11.31-4.74-22.54-9.67-1.39-.61-2.89-.87" vector-effect="non-scaling-stroke"/><path stroke="#d2e0e7" d="M161.59 45.51 160 48.46" vector-effect="non-scaling-stroke"/><path stroke="#dbe9ef" d="M160 48.46q-.02-.16-.03-.33-.03-.24-.2-.07l-.52.48" vector-effect="non-scaling-stroke"/><path stroke="#d9eded" d="M159.25 48.54q-2.08.58-3.21 2.46" vector-effect="non-scaling-stroke"/><path stroke="#dbe9ef" d="m156.04 51-4.29 2.04" vector-effect="non-scaling-stroke"/><path stroke="#d9eded" d="M151.75 53.04q-5.63 2.27-10.5 5.92" vector-effect="non-scaling-stroke"/><path stroke="#dbe9ef" d="M141.25 58.96q-6.95 3.66-23.56 13.23c-1.49.86-2.3 1.23-2.7 3.06q-.82 3.86-1.7 7.71c-.64 2.82-.26 5.61-.7 8.62q-.59 4.11-.65 6.41-.14 5.4-.98 10.76" vector-effect="non-scaling-stroke"/><path stroke="#d9eded" d="M110.96 108.75c-1.51 8.36-1.88 15.65-1.82 24.32" vector-effect="non-scaling-stroke"/><path stroke="#dbe9ef" d="M109.14 133.07q-1.34 4.75-3.85 8.93" vector-effect="non-scaling-stroke"/><path stroke="#cee1f3" d="m103.75 143.54-.48-.04q-.45-.05-.66-.45c-2.37-4.62-1.49-11.52-1.78-16.65-.38-6.85-.04-14.03-.33-21.09-.49-12.08-.1-23.96-1.04-36.06" vector-effect="non-scaling-stroke"/><path stroke="#d1edfb" d="m99.46 69.25-.51-4.93q-.05-.51.34-.83 2.26-1.85 3.19-2.07 9.99-2.3 18.76-7.67" vector-effect="non-scaling-stroke"/><path stroke="#6f819c" stroke-opacity=".855" d="m39.25 35.04-1.04 1.46" vector-effect="non-scaling-stroke"/><path stroke="#51647d" stroke-opacity=".855" d="M38.21 36.5c-2.78 5.75-2.3 14.71-2.18 20.9q.43 23.68.71 47.35.05 3.94 1.69 10.84" vector-effect="non-scaling-stroke"/><path stroke="#5c708c" stroke-opacity=".855" d="M38.43 115.59c1.48 1.95 2.7 3.75 4.97 4.89q15.68 7.87 31.44 15.6c5.39 2.64 13.06 7.15 19.94 10.12q.44.19.92.16l2.3-.15" vector-effect="non-scaling-stroke"/><path stroke="#6e7b81" stroke-opacity=".851" d="M160.29 117.75q2.69-3.45 2.93-8.75 1.43-31.49 2.4-63 .16-4.87-2.08-8.75" vector-effect="non-scaling-stroke"/><path stroke="#6281b0" d="M39.21 47.5q.3 1.49-.21 4.49c-.74 4.36.8 11.23.7 16.35-.2 9.9 1.17 18.4 1.08 29.55-.02 2.99 3.11 14.6-1.31 15.69q-.51.13-.65.63l-.39 1.38" vector-effect="non-scaling-stroke"/><path stroke="#6f88a4" d="M93.83 172.28a.48.47 41.5 0 1-.06-.94q4-.8 4.31-4.87c.99-12.89-4.99-10.92-15.29-10.74q-.54.01-.54.56v33.46q0 .64.63.68c3.14.22 10.4.5 13.01-1.45 2.99-2.23 2.56-8.69 2.17-12.22q-.48-4.18-4.23-4.48" vector-effect="non-scaling-stroke"/><path stroke="#607a98" d="M91.656 161.183a1.62 1.62 0 0 0-1.617-1.623h-.12a1.62 1.62 0 0 0-1.623 1.617l-.012 6.98a1.62 1.62 0 0 0 1.617 1.623h.12a1.62 1.62 0 0 0 1.623-1.617l.012-6.98M91.704 175.916a1.63 1.63 0 0 0-1.624-1.636h-.12a1.63 1.63 0 0 0-1.635 1.624l-.03 8.34a1.63 1.63 0 0 0 1.625 1.636h.12a1.63 1.63 0 0 0 1.635-1.624l.03-8.34" vector-effect="non-scaling-stroke"/><path stroke="#7f919d" stroke-opacity=".541" d="M90.82 161.24a.61.61 0 0 0-.594-.626l-.22-.006a.61.61 0 0 0-.625.594L89.2 168.1a.61.61 0 0 0 .594.626l.22.006a.61.61 0 0 0 .625-.594l.181-6.898" vector-effect="non-scaling-stroke"/><path stroke="#6e7b81" stroke-opacity=".851" d="M147.8 166.81q-.13.82 0 1.62.31 1.88.7-.18.15-.84-.2-1.52a.27.27 0 0 0-.5.08M148.69 181.44q.12-.26.03-.55-.04-.14-.19-.14h-.31q-.48 0-.38.47l.21 1.09q.11.54.48.14.16-.18.16-.38-.01-.61 0-.63" vector-effect="non-scaling-stroke"/><path stroke="#7f919d" stroke-opacity=".541" d="M107.82 177.97c-1.55-.19-1.21 7.83-.46 7.79q.52-.02.54-.54l.31-6.79q.02-.41-.39-.46" vector-effect="non-scaling-stroke"/><path stroke="#33517c" stroke-opacity=".541" d="M63.623 167.385a.6.6 0 0 0-.586-.613l-.08-.002a.6.6 0 0 0-.614.586l-.106 4.679a.6.6 0 0 0 .586.613l.08.002a.6.6 0 0 0 .614-.586l.106-4.679" vector-effect="non-scaling-stroke"/><path stroke="#607a98" d="M108.75 167.663a1.35 1.35 0 0 0-1.339-1.361l-.36-.003a1.35 1.35 0 0 0-1.361 1.338l-.04 4.48a1.35 1.35 0 0 0 1.339 1.361l.36.003a1.35 1.35 0 0 0 1.361-1.338l.04-4.48M123.04 178.75l.11-.35q.12-.38-.2-.14l-.35.25q-.33.25-.34.67c0 1.77-.99 6.93 1.53 7.11a.74.73-78.8 0 0 .75-.51q1-3.2.21-6.46-.12-.51.06-1.01.19-.54-.13-.99-.37-.52-.85-.09-.58.53-.33 1.48" vector-effect="non-scaling-stroke"/><path stroke="#7f919d" stroke-opacity=".541" d="M90.737 176.151a.65.65 0 0 0-.649-.65l-.2-.001a.65.65 0 0 0-.651.649l-.014 7.94a.65.65 0 0 0 .649.65l.2.001a.65.65 0 0 0 .651-.649l.014-7.94" vector-effect="non-scaling-stroke"/></g><path fill="#050606" fill-opacity=".082" d="M95.25 155.46q-4.65-1.24-9.5-1.17l4.56-.06a.45.44-37.4 0 0 .12-.87l-4.46-1.26q-.44-.12-.49-.57-.11-.91-1.12-.8-.55.06-1.03-.23l-6.71-4.14q-.42-.26-.9-.36c-1.48-.31-2.03-1.34-3.21-1.78-7.24-2.71-14.45-6.95-21.5-10.26q-1.37-.64-2.22-.81-3.29-.67-.11.68 4.78 2.02 9.18 4.78.24.15.42.36.46.56 1.36.25.47-.16.62.31.33 1.04 1.44.71.52-.16.62.38.14.77.88.64.51-.09.97.15l3.6 1.85q.46.23.77.65.47.66 1.46.3 1.84-.68.56.6l-.22.23q-.17.17.05.24 2.75.87 5.05 2.52.4.29.65.71.61 1.04 2.18.93.76-.05.86.6.1.62-.45.3-.9-.53-1.94-.59-.46-.03-.81-.31-2.92-2.31-6.57-2.55-.35-.03-.36-.38v-.3q0-.23-.23-.31-3.9-1.26-7.2-3.7c-1.67-1.24-3.68-1.3-5.27-2.28q-2.59-1.59-5.42-2.76-.51-.2-.75-.69-.36-.74-1.22-.73-.39 0-.56-.34-.43-.86-1.28-.87-.32 0-.58-.19-1.28-.94-2.69-1.75-.4-.23-.69-.58-.75-.87-2.1-.47-.48.14-.75-.29-.5-.81-1.49-.75-.51.03-.52-.48v-.33q.01-.24-.24-.27-2.5-.29-3.7-2.25-.35-.58-1.02-.48l-.47.06q-.65.09-.59-.56.13-1.18-.83-1.52-.5-.17-.79-.6l-1.08-1.56q-.27-.39-.21-.86.1-.74-.68-.99-.57-.19-.39-.77.37-1.19-.76-1.15-.72.02-.6-.68c.6-3.5-.88-5.98-.89-9v-27.7q0-.46-.44-.59c-1.38-.38.25-16.22-1.28-18.63q-.27-.43-.27-.93c-.03-7.91-1.16-17.14 2.34-24.6 1.38-2.94 4.41-4.55 6.65-6.97q1.79-1.95 3.67-2.82 4.82-2.22 9.88-3.82.45-.14.59-.6c.37-1.18 3.79-.09 5.25-2.38q.28-.44.78-.3 1.47.4 2.36-.66.29-.33.73-.29 1.15.1 1.95-.72.39-.39.93-.27.83.17 1.2-.67.21-.49.72-.36.87.21 1.23-.5.24-.47.75-.58l8.72-1.91q.46-.1.68-.51.2-.36.68-.19.5.17.97-.08l5.39-2.84q.43-.22.89-.13 1.01.2 1.78-.47.38-.33.86-.48c.9-.29 4.1-1.09 4.27-1.95q.08-.39.48-.36 1.36.12 2.43-.71.43-.34.97-.36 7.7-.28 15.39-.19c2.65.02 4.84 1.22 7.58 1.54q.46.05.69.45c.36.62 15.11 5.96 17.07 6.74q.5.19.63.7.15.56.91.31.5-.16.97.09 1.08.58 2.38.5.44-.02.71.33.8 1.03 1.91.69.49-.15.81.25 1.18 1.48 2.33 1.81 4.38 1.27 8.55 3.17 4.56 2.08 9.42 3.44.41.11.44.43.03.34.36.46 1.52.54 2.62 1.81.26.28.64.34.75.11 1.25.75.13.18.35.19.2.02.42.01.44-.01.81.23 3.66 2.31 5.62 5.96 1.34 2.5 1.46 6.89.46 16.77.59 33.52 0 .45-.29.79-.45.54-.44 1.17 0 .26.24.37.18.08.39.14.82.26-.04.38l-.42.06q-.14.02-.2.16-.42 1.01.4 1.36 1.76.74.04.49-.13-.02-.27-.02-.11 0-.12.12l-.3 6.21q-.02.46.16.89.38.93-.25 1.98-.28.46-.14.98c.68 2.6-.08 5.4-.11 7.33q-.09 6.49-.29 13-.01.49-.5.49h-.3q-.36 0-.37.36-.02 4.49-1.95 8.49-.21.43-.62.67l-.27.16q-.19.11-.26.31-.7 1.84-2.31 2.72-.48.26-.33.78.34 1.23-.68 1.27-.5.02-.84.39-2.14 2.25-5.03 2.64-.38.05-.6.35-.66.87-1.82.52-.33-.1-.31.25.01.2.01.38-.01.25-.22.38-2.23 1.32-4.58 2.35c-2.2.97-4.37 2.89-7.71 2.82q-.19 0 .02.16l.1.06q.12.06.04.12-2.11 1.67-4.64 2.57c-2.6.93-4.01 1.79-6.74 3.72q-2.57 1.81-5.69 2.44-.5.1-.84.48-1.36 1.54-3.56 1.32-.35-.04-.19.27l.22.41q.09.17-.08.22c-2.5.8-3.47 2.18-5.55 3.23-1.93.98-4.01.27-6.15 1.63q-.42.27-.92.28-7.26.09-14.52-.29-1.61-.09-.99 2ZM29.08 61.19c-.66-10.14-1.7-20.63 5.55-27.63q.26-.26-.1-.32c-2.72-.47-6.44 10.63-6.59 12.74-.52 7.58.19 15.51.29 22.7.1 6.65 1.08 13.53 1.18 19.79q.18 12.56 1.08 25.09c.58 8.02 10.9 13.67 17.78 17.24.61.32 1.45.23 1.92 1.13q.22.43.65.63L66.79 140q.98.46.17-.26-2.12-1.89-4.72-2.86-.24-.09-.24-.35 0-.14-.01-.29-.03-.59.52-.37c1.88.72 10.13 4.31 10.88 5.73q.23.44.68.64 5.2 2.31 10.16 5.1c2.81 1.58 5.62 2.37 8.59 3.5q.44.16.43.62v.34q-.01.5.49.5 1.01-.01 1.59.66.28.31.71.31l9.12-.07q.39 0 .09-.26l-.27-.24q-.41-.35.12-.45 3.12-.59 3.96-.95 8.24-3.53 21.74-10.51c2.33-1.21 5.61-2.07 8-3.75q2.31-1.61 4.52-2.33.48-.16.77-.56c1.82-2.46 4.64-2.12 6.96-3.5 3.29-1.97 6.68-3.49 9.43-6.24 1.3-1.31 2.52-1.29 3.6-2.97q4.37-6.78 4.14-14.91c-.04-1.52.35-2.71.62-4.15.33-1.79.21-14.66.82-15.04q.33-.2.34-.59l.2-13.45q0-.4.27-.7c1.07-1.23.35-13.49.29-15.9q-.01-.26.11-.03l.17.33q.26.48.3-.06.54-6.83-.16-13.65c-.27-2.54-1.48-4.26-2.67-6.43-2.43-4.43-5.52-5.28-10.06-7.34q-7.31-3.33-14.92-5.85c-2.99-.99-7.01-2.88-10.71-4.07q-11.86-3.83-21.16-7.99-2.76-1.24-5.18-1.13-.23.01-.23-.21 0-.13.01-.3.03-.26-.23-.3c-6.23-1.04-10.13.02-15.53 1.01-2.29.42-4.24 1.91-6.69 2.37-1.7.32-2.6 1.04-4.09 1.74q-.44.21.05.21h.98q1.12 0-.02.22-1.12.21-1.89 1.14-.28.34-.73.41l-2.43.35q-.44.07-.82.3-2.13 1.35-5.83 2.08-2.09.41-7.06 2.61-.47.21-.98.14-1.92-.25-3.23 1.27-.31.38-.8.45-3.65.58-6.62 2.76c-.47.35-1.07.38-1.6.24q-.82-.21-.04-.52l4.57-1.82q2.32-.93-.11-.36-4.5 1.06-8.22 3.76-.4.28-.87.38-1.34.26-1.99 1.48-.25.46-.75.62c-13.78 4.5-11.79 19.46-12.14 30.68q-.04 1.21-.11 0Z"/><path fill="#282a25" fill-opacity=".416" d="M29.19 61.19c.35-11.22-1.64-26.18 12.14-30.68q.5-.16.75-.62.65-1.22 1.99-1.48.47-.1.87-.38 3.72-2.7 8.22-3.76 2.43-.57.11.36l-4.57 1.82q-.78.31.04.52c.53.14 1.13.11 1.6-.24q2.97-2.18 6.62-2.76.49-.07.8-.45 1.31-1.52 3.23-1.27.51.07.98-.14 4.97-2.2 7.06-2.61 3.7-.73 5.83-2.08.38-.23.82-.3l2.43-.35q.45-.07.73-.41.77-.93 1.89-1.14 1.14-.22.02-.22h-.98q-.49 0-.05-.21c1.49-.7 2.39-1.42 4.09-1.74 2.45-.46 4.4-1.95 6.69-2.37 5.4-.99 9.3-2.05 15.53-1.01q.26.04.23.3-.01.17-.01.3 0 .22.23.21 2.42-.11 5.18 1.13 9.3 4.16 21.16 7.99c3.7 1.19 7.72 3.08 10.71 4.07q7.61 2.52 14.92 5.85c4.54 2.06 7.63 2.91 10.06 7.34 1.19 2.17 2.4 3.89 2.67 6.43q.7 6.82.16 13.65-.04.54-.3.06l-.17-.33q-.12-.23-.11.03c.06 2.41.78 14.67-.29 15.9q-.27.3-.27.7l-.2 13.45q-.01.39-.34.59c-.61.38-.49 13.25-.82 15.04-.27 1.44-.66 2.63-.62 4.15q.23 8.13-4.14 14.91c-1.08 1.68-2.3 1.66-3.6 2.97-2.75 2.75-6.14 4.27-9.43 6.24-2.32 1.38-5.14 1.04-6.96 3.5q-.29.4-.77.56-2.21.72-4.52 2.33c-2.39 1.68-5.67 2.54-8 3.75q-13.5 6.98-21.74 10.51-.84.36-3.96.95-.53.1-.12.45l.27.24q.3.26-.09.26l-9.12.07q-.43 0-.71-.31-.58-.67-1.59-.66-.5 0-.49-.5v-.34q.01-.46-.43-.62c-2.97-1.13-5.78-1.92-8.59-3.5q-4.96-2.79-10.16-5.1-.45-.2-.68-.64c-.75-1.42-9-5.01-10.88-5.73q-.55-.22-.52.37.01.15.01.29 0 .26.24.35 2.6.97 4.72 2.86.81.72-.17.26l-15.95-7.44q-.43-.2-.65-.63c-.47-.9-1.31-.81-1.92-1.13-6.88-3.57-17.2-9.22-17.78-17.24q-.9-12.53-1.08-25.09c-.1-6.26-1.08-13.14-1.18-19.79-.1-7.19-.81-15.12-.29-22.7.15-2.11 3.87-13.21 6.59-12.74q.36.06.1.32c-7.25 7-6.21 17.49-5.55 27.63q.07 1.21.11 0ZM96 12.46l-12.04 4.29q-2.91.48-5.46 1.96l-4.92 1.96q-3.77.46-6.58 2.79l-8.75 3.08q-2.38-.57-3 1.42L43.5 32.54q-2.34.73-4.04 2.46l-.21.04q-1.15-.1-1.32.76-.1.51-.48.86-1.13 1.04-1.46 2.55-.06.33-.33.52l-.64.47q-.37.27-.55.7-2.01 4.84-1.99 9.1.04 10.05.93 24.23c.77 12.36.38 26.47 1.72 39.77.16 1.56 2.08 5.01 3.23 5.99 7.06 6.08 16.94 9.81 23.93 13.41q3.66 1.89 9.15 4.36c5.07 2.28 9.92 5.23 15.17 7.09q2.13.76 4.07 2.03.44.29.94.11.42-.16.82.04.39.19-.03.27c-1.79.34-3.38-1.09-4.96-1.41q-.86-.17-.07.2c8.22 3.83 13 4.85 21.76 1.55q2.42-.91 5.08-2.45 2.95-1.7 8.08-3.64 1.39-.52 5.63-3.25.46-.29 1-.27 1.35.04 2.2-1.11.29-.39.79-.43c1.46-.12 2.6-1.14 3.54-1.56q4.62-2.08 9.2-4.26c3.5-1.66 7.12-4.59 11.14-6.27 1.8-.75 2.92-1.9 4.73-2.73q.46-.21.75-.63l2.31-3.34q.3-.43.41-.95c.43-2.07 1.17-3.83 1.32-5.91q.9-12.66 1.52-25.34c.4-8.28 1.5-20.61 1.06-31.11q-.07-1.78.5-5.06c.41-2.37-.06-10.82-3.35-11.55q-.44-.1-.45-.55-.04-1.44-2.06-1.48l-4-2.25-26.08-10.75q-1.43-1.04-3.21-1.21-4.2-1.19-8-3.33-1.84-1.14-4-1.17L112 14.71q-1.25-1.18-3-.96-1.28-1.05-3-1-4.93-2.57-10-.29ZM29.849 77.236a7.5.17 88.1 0 0-.08-7.502 7.5.17 88.1 0 0-.418-7.49 7.5.17 88.1 0 0 .08 7.502 7.5.17 88.1 0 0 .418 7.49Zm8.131 45.194q-.37-.75-1.13-1.14-.69-.36-.3.32c2.67 4.67 7.55 6.09 11.95 8.38q.43.22 1.03-.06.52-.25-.03-.42c-4.77-1.42-7.18-3.97-10.89-6.37q-.42-.27-.63-.71Z"/><path fill="#375786" d="M106 12.75q-4.98-.74-10-.29 5.07-2.28 10 .29Z"/><path fill="#c6e2dd" d="M106 12.75q1.26 1.14 3 1 1.29 1.11 3 .96l5.25 2.33q1.72 1.49 4 1.17 3.8 2.14 8 3.33 1.28 1.42 3.21 1.21l26.08 10.75q-2.1 2.56-5.6 2.54-4.25.46-8.02 2.45c-2.62 1.39-5.29 1.99-7.85 3.4-2.09 1.16-4.49 1.64-6.55 2.99-1.34.89-2.1.91-3.6 1.1q-.48.06-.86.37-1.61 1.29-3.63 1.15-.51-.03-.92.27-1.26.94-2.68 1.42-1.77.6-2.81 1.2c-3.51 2.04-7.21 2.87-10.94 4.29-2.77 1.07-5.07.43-7.98.85q-.57.08-1.08-.16-4.39-2.11-9.09-3.34-.5-.14-.73-.61l-.31-.65q-.23-.48-.74-.63L79.9 48.6q-.41-.11-.7-.42-.85-.89-2.05-.68-.49.08-.87-.24-2.52-2.16-5.74-2.41-.52-.04-.98-.27l-6.92-3.4q-.5-.24-.92-.58-1.16-.95-2.74-.86-.5.03-.92-.26-5.32-3.75-11.02-4.28c-1.46-.14-4.89-.15-3.54-2.66l11.75-4.58 3-1.42L67 23.46q3.52-.87 6.58-2.79l4.92-1.96q2.95-.37 5.46-1.96L96 12.46q5.02-.45 10 .29Z"/><path fill="#375786" d="M106 12.75q1.72-.05 3 1-1.74.14-3-1ZM109 13.75q1.75-.22 3 .96-1.71.15-3-.96ZM83.96 16.75q-2.51 1.59-5.46 1.96 2.55-1.48 5.46-1.96ZM117.25 17.04q2.16.03 4 1.17-2.28.32-4-1.17ZM73.58 20.67q-3.06 1.92-6.58 2.79 2.81-2.33 6.58-2.79ZM129.25 21.54q1.78.17 3.21 1.21-1.93.21-3.21-1.21ZM58.25 26.54l-3 1.42q.62-1.99 3-1.42Z"/><path fill="#afc9e8" d="M43.5 32.54c-1.35 2.51 2.08 2.52 3.54 2.66q5.7.53 11.02 4.28.42.29.92.26 1.58-.09 2.74.86.42.34.92.58l6.92 3.4q.46.23.98.27 3.22.25 5.74 2.41.38.32.87.24 1.2-.21 2.05.68.29.31.7.42l5.25 1.54q.51.15.74.63l.31.65q.23.47.73.61 4.7 1.23 9.09 3.34.51.24 1.08.16c2.91-.42 5.21.22 7.98-.85 3.73-1.42 7.43-2.25 10.94-4.29q1.04-.6 2.81-1.2 1.42-.48 2.68-1.42.41-.3.92-.27 2.02.14 3.63-1.15.38-.31.86-.37c1.5-.19 2.26-.21 3.6-1.1 2.06-1.35 4.46-1.83 6.55-2.99 2.56-1.41 5.23-2.01 7.85-3.4q3.77-1.99 8.02-2.45-4.03 2.57-6.63 3.52-10.13 3.71-19.81 8.48-2.11.29-3.75 1.67c-2.28.85-8.78 3.13-8.79 4.04q-2.65.07-4.71 1.71-2.4.72-4.83 1.43c-5.69 1.68-8.17-1.52-13.13-1.64Q69.63 45.8 47.8 36.76c-2.81-1.16-5.38-1.13-8.34-1.76q1.7-1.73 4.04-2.46Z"/><path fill="#a7b9c1" d="m158.54 33.5 4 2.25 1 1.5q.73 4.07-.66 7.72c-1.85 4.88-.86 12.85-1.28 18.29q-.86 11.39-1.28 22.83c-.12 3.22-1.28 6.91-.95 10.66q.69 7.96-.89 15.74-.3 1.49 1.12 2.39.42.27.47.75l.22 2.12q-2.35 2.52-3.32 3.01-23.82 12.05-47.7 24.05-5.31 2.66-11.27 1.4l-.5-1.71 3.79.97q.51.13.98-.12 1.05-.58 1.48-1.81l1.54-1.54q3.6-2.41 4.71-6.71l-.69 2.97q-.14.6.35.23c2.49-1.88 3.34-4.9 4.97-6.84 3.61-4.28 7.75-8.05 10.7-12.68 2.94-4.61 4.41-7.98 6.65-11.71 8.37-13.97 15.58-28.95 22.99-43.48 1.56-3.08 1.24-6.19 3.38-9.24 2.2-3.13 2.87-5.57 3.24-9.03l.68-4.94q.08-.6-.46-.89c-3.85-2.02-19.08 5.61-23.44 7.43-2.03.85-4.42 1.19-6.65 2.17-4.32 1.88-7.03 2.89-10.48 4.47-4.25 1.9-18.13 7.44-22.24 6.04l.5-.05q.83-.08 0-.21l-2.31-.35q-.47-.07-.69-.48c-1.44-2.63-3.33-1.82-5.21-3.45 4.96.12 7.44 3.32 13.13 1.64q2.43-.71 4.83-1.43 2.73.1 4.71-1.71c.01-.91 6.51-3.19 8.79-4.04q2.17-.13 3.75-1.67 9.68-4.77 19.81-8.48 2.6-.95 6.63-3.52 3.5.02 5.6-2.54Z"/><path fill="#474a48" fill-opacity=".706" d="m39.25 35.04-1.04 1.46c-2.78 5.75-2.3 14.71-2.18 20.9q.43 23.68.71 47.35.05 3.94 1.69 10.84c1.48 1.95 2.7 3.75 4.97 4.89q15.68 7.87 31.44 15.6c5.39 2.64 13.06 7.15 19.94 10.12q.44.19.92.16l2.3-.15q5.96 1.26 11.27-1.4 23.88-12 47.7-24.05.97-.49 3.32-3.01 2.69-3.45 2.93-8.75 1.43-31.49 2.4-63 .16-4.87-2.08-8.75l-1-1.5q2.02.04 2.06 1.48.01.45.45.55c3.29.73 3.76 9.18 3.35 11.55q-.57 3.28-.5 5.06c.44 10.5-.66 22.83-1.06 31.11q-.62 12.68-1.52 25.34c-.15 2.08-.89 3.84-1.32 5.91q-.11.52-.41.95l-2.31 3.34q-.29.42-.75.63c-1.81.83-2.93 1.98-4.73 2.73-4.02 1.68-7.64 4.61-11.14 6.27q-4.58 2.18-9.2 4.26c-.94.42-2.08 1.44-3.54 1.56q-.5.04-.79.43-.85 1.15-2.2 1.11-.54-.02-1 .27-4.24 2.73-5.63 3.25-5.13 1.94-8.08 3.64-2.66 1.54-5.08 2.45c-8.76 3.3-13.54 2.28-21.76-1.55q-.79-.37.07-.2c1.58.32 3.17 1.75 4.96 1.41q.42-.08.03-.27-.4-.2-.82-.04-.5.18-.94-.11-1.94-1.27-4.07-2.03c-5.25-1.86-10.1-4.81-15.17-7.09q-5.49-2.47-9.15-4.36c-6.99-3.6-16.87-7.33-23.93-13.41-1.15-.98-3.07-4.43-3.23-5.99-1.34-13.3-.95-27.41-1.72-39.77q-.89-14.18-.93-24.23-.02-4.26 1.99-9.1.18-.43.55-.7l.64-.47q.27-.19.33-.52.33-1.51 1.46-2.55.38-.35.48-.86.17-.86 1.32-.76Z"/><path fill="#8ba7d7" d="m39.25 35.04.21-.04c2.96.63 5.53.6 8.34 1.76q21.83 9.04 43.49 18.49c1.88 1.63 3.77.82 5.21 3.45q.22.41.69.48l2.31.35q.83.13 0 .21l-.5.05q-1.59-.14-3.16.42-.52.18-1.03-.04Q69.23 48.85 43 39.15a1.85.63-47.8 0 0-1.45.8c-1.09 1.08 10.57 5.15 11.59 5.53q.46.17.81.51.66.65 1.58.54.49-.06.92.17l5.3 2.84q.94 1.12 1.43 1.32 4.84 1.92 9.26 4.72.43.27.93.17 2.4-.49 3.95 1.48.33.42.86.46c2.15.14 3.36 1.67 4.99 2.26 4.04 1.48 7.15 2.71 10.08 5.97q.35.38.84.52c3.34.95 3.12 6.11 3.08 9.77q-.01.49-.3.88-.86 1.13-.86 1.91-.02 26.17 0 52.37c0 4.55-2.05 7.66 1.39 12.19q.21.28.1.94-2.87-1.71-4.95-4.3-3.11-8.51-4.78-21.95c-.84-6.72-3.67-13.67-7.58-20.12q-9.9-16.3-12.7-22.62-3.25-7.35-5.69-11.43-1.17-1.96-3.4-3.33-7.15-4.39-14.14-9.08c-2.12-1.42-2.95-3.32-4.76-5.13l-.29.96q-.06-1.61-.58-3.08c-1.03-2.91-.51-5.04-.42-7.92l1.04-1.46Z"/><path fill="#5877a3" d="M38.21 36.5c-.09 2.88-.61 5.01.42 7.92q.52 1.47.58 3.08.3 1.49-.21 4.49c-.74 4.36.8 11.23.7 16.35-.2 9.9 1.17 18.4 1.08 29.55-.02 2.99 3.11 14.6-1.31 15.69q-.51.13-.65.63l-.39 1.38q-1.64-6.9-1.69-10.84-.28-23.67-.71-47.35c-.12-6.19-.6-15.15 2.18-20.9Z"/><path fill="#899daa" fill-opacity=".996" d="M163.54 37.25q2.24 3.88 2.08 8.75-.97 31.51-2.4 63-.24 5.3-2.93 8.75l-.22-2.12q-.05-.48-.47-.75-1.42-.9-1.12-2.39 1.58-7.78.89-15.74c-.33-3.75.83-7.44.95-10.66q.42-11.44 1.28-22.83c.42-5.44-.57-13.41 1.28-18.29q1.39-3.65.66-7.72Z"/><path fill="#ecf8fd" d="M161.59 45.51 160 48.46q-.02-.16-.03-.33-.03-.24-.2-.07l-.52.48q-2.08.58-3.21 2.46l-4.29 2.04q-5.63 2.27-10.5 5.92-6.95 3.66-23.56 13.23c-1.49.86-2.3 1.23-2.7 3.06q-.82 3.86-1.7 7.71c-.64 2.82-.26 5.61-.7 8.62q-.59 4.11-.65 6.41-.14 5.4-.98 10.76c-1.51 8.36-1.88 15.65-1.82 24.32q-1.34 4.75-3.85 8.93l-1.54 1.54-.48-.04q-.45-.05-.66-.45c-2.37-4.62-1.49-11.52-1.78-16.65-.38-6.85-.04-14.03-.33-21.09-.49-12.08-.1-23.96-1.04-36.06l-.51-4.93q-.05-.51.34-.83 2.26-1.85 3.19-2.07 9.99-2.3 18.76-7.67c3.45-1.58 6.16-2.59 10.48-4.47 2.23-.98 4.62-1.32 6.65-2.17 4.36-1.82 19.59-9.45 23.44-7.43q.54.29.46.89l-.68 4.94Z"/><path fill="#b5e2f9" d="M99 59.79c4.11 1.4 17.99-4.14 22.24-6.04q-8.77 5.37-18.76 7.67-.93.22-3.19 2.07-.39.32-.34.83l.51 4.93c-1.81-1.59-4.61-4.9-6.86-5.31q-.5-.09-.85-.45-2.47-2.54-4.57-3.41-11.31-4.74-22.54-9.67-1.39-.61-2.89-.87l-5.3-2.84q-.43-.23-.92-.17-.92.11-1.58-.54-.35-.34-.81-.51c-1.02-.38-12.68-4.45-11.59-5.53a1.85.63-47.8 0 1 1.45-.8q26.23 9.7 51.81 21.02.51.22 1.03.04 1.57-.56 3.16-.42Z"/><path fill="#b8c8d0" d="M161.59 45.51c-.37 3.46-1.04 5.9-3.24 9.03-2.14 3.05-1.82 6.16-3.38 9.24-7.41 14.53-14.62 29.51-22.99 43.48-2.24 3.73-3.71 7.1-6.65 11.71-2.95 4.63-7.09 8.4-10.7 12.68-1.63 1.94-2.48 4.96-4.97 6.84q-.49.37-.35-.23l.69-2.97q2.52-8.61 2.69-16.55c.07-3.56.94-6.62 1.18-10 .25-3.52.86-5.91 2.88-9.04q5.93-9.17 11.04-18.86.24-.44.24-.94 0-2.57 2-3.94.41-.28.61-.73c2.05-4.79 1.57-8 6.83-10.3q.4-.18.73-.46.51-.44.7-.97.16-.47.59-.71 1.71-.96 3.33-2.07c1.45-1 3.35-1.11 4.66-2.75q.3-.38.76-.53c3.26-1.04 10.24-5.7 11.76-8.98l1.59-2.95Z"/><path fill="#6b8bbc" d="M39.5 46.54c.69 3.24 2.39 5.65 2.82 8.78.95 6.99 1.33 14.29 3.45 20.72 4.18 12.62 11.07 24.62 17.65 36.12.71 1.23 2.11 2.53 2.76 3.94 2.62 5.81 9.79 11.12 15.12 14.31 4.07 2.44 6.45 5 9.44 8.28q.64.71.27-.2-.04-.08-.1-.16-1.61-2.06.26-.2.91.9 1.38 2.07 2.08 2.59 4.95 4.3l.5 1.71-2.3.15q-.48.03-.92-.16c-6.88-2.97-14.55-7.48-19.94-10.12q-15.76-7.73-31.44-15.6c-2.27-1.14-3.49-2.94-4.97-4.89l.39-1.38q.14-.5.65-.63c4.42-1.09 1.29-12.7 1.31-15.69.09-11.15-1.28-19.65-1.08-29.55.1-5.12-1.44-11.99-.7-16.35q.51-3 .21-4.49l.29-.96Z"/><path fill="#7898ce" d="M39.5 46.54c1.81 1.81 2.64 3.71 4.76 5.13q6.99 4.69 14.14 9.08 2.23 1.37 3.4 3.33 2.44 4.08 5.69 11.43 2.8 6.32 12.7 22.62c3.91 6.45 6.74 13.4 7.58 20.12q1.67 13.44 4.78 21.95-.47-1.17-1.38-2.07-1.87-1.86-.26.2.06.08.1.16.37.91-.27.2c-2.99-3.28-5.37-5.84-9.44-8.28-5.33-3.19-12.5-8.5-15.12-14.31-.65-1.41-2.05-2.71-2.76-3.94-6.58-11.5-13.47-23.5-17.65-36.12-2.12-6.43-2.5-13.73-3.45-20.72-.43-3.13-2.13-5.54-2.82-8.78Z"/><path fill="#cad9e0" d="M160 48.46c-1.52 3.28-8.5 7.94-11.76 8.98q-.46.15-.76.53c-1.31 1.64-3.21 1.75-4.66 2.75q-1.62 1.11-3.33 2.07-.43.24-.59.71-.19.53-.7.97-.33.28-.73.46c-5.26 2.3-4.78 5.51-6.83 10.3q-.2.45-.61.73-2 1.37-2 3.94 0 .5-.24.94-5.11 9.69-11.04 18.86c-2.02 3.13-2.63 5.52-2.88 9.04-.24 3.38-1.11 6.44-1.18 10q-.17 7.94-2.69 16.55-1.11 4.3-4.71 6.71 2.51-4.18 3.85-8.93 2.7-12 1.82-24.32.84-5.36.98-10.76.06-2.3.65-6.41c.44-3.01.06-5.8.7-8.62q.88-3.85 1.7-7.71c.4-1.83 1.21-2.2 2.7-3.06q16.61-9.57 23.56-13.23l4.54-2.44q.43-.23.9-.33c2.01-.41 2.99-2.32 5.06-3.15l4.29-2.04q2.41-.32 3.21-2.46l.52-.48q.17-.17.2.07.01.17.03.33Z"/><path fill="#8ba7d7" d="M126.5 48.04q-1.58 1.54-3.75 1.67 1.64-1.38 3.75-1.67Z"/><path fill="#c6e2dd" d="M159.25 48.54q-.8 2.14-3.21 2.46 1.13-1.88 3.21-2.46Z"/><path fill="#afc9e8" d="M61.75 49.54q1.5.26 2.89.87 11.23 4.93 22.54 9.67 2.1.87 4.57 3.41.35.36.85.45c2.25.41 5.05 3.72 6.86 5.31.94 12.1.55 23.98 1.04 36.06.29 7.06-.05 14.24.33 21.09.29 5.13-.59 12.03 1.78 16.65q.21.4.66.45l.48.04q-.43 1.23-1.48 1.81-.47.25-.98.12l-3.79-.97q.11-.66-.1-.94c-3.44-4.53-1.39-7.64-1.39-12.19q-.02-26.2 0-52.37 0-.78.86-1.91.29-.39.3-.88c.04-3.66.26-8.82-3.08-9.77q-.49-.14-.84-.52c-2.93-3.26-6.04-4.49-10.08-5.97-1.63-.59-2.84-2.12-4.99-2.26q-.53-.04-.86-.46-1.55-1.97-3.95-1.48-.5.1-.93-.17-4.42-2.8-9.26-4.72-.49-.2-1.43-1.32Z"/><path fill="#c6e2dd" d="M151.75 53.04c-2.07.83-3.05 2.74-5.06 3.15q-.47.1-.9.33l-4.54 2.44q4.87-3.65 10.5-5.92Z"/><path fill="#8ba7d7" d="M113.96 53.75q-1.98 1.81-4.71 1.71 2.06-1.64 4.71-1.71Z"/><ellipse fill="#050606" fill-opacity=".082" rx="7.5" ry=".17" transform="rotate(88.1 -21.246 50.17)"/><path fill="#c6e2dd" d="M110.96 108.75q.88 12.32-1.82 24.32c-.06-8.67.31-15.96 1.82-24.32Z"/><path fill="#050606" fill-opacity=".082" d="M38.61 123.14c3.71 2.4 6.12 4.95 10.89 6.37q.55.17.03.42-.6.28-1.03.06c-4.4-2.29-9.28-3.71-11.95-8.38q-.39-.68.3-.32.76.39 1.13 1.14.21.44.63.71Z"/><path fill="#899daa" fill-opacity=".996" d="M46.46 160.5q-1.62-1.12-1.11-3.3a1.47 1.47 0 0 0-1.44-1.8l-7.83.03q-.67.01-.66.67l.08 33.42q0 .66.67.67l5.04.06q.3.32.3.74 0 .51-.51.51h-6q-.5 0-.5-.5v-35.9a.59.59 0 0 1 .58-.59l9.57-.17q.54-.01.65.52l1.16 5.64Z"/><path fill="#899daa" fill-opacity=".996" d="M41.29 171.75q-.43-2.97-.47-5.98-.02-1.69.3-.03l4.5 23.87q.11.59.72.6l6.27.18q.55.01.7-.52c.66-2.17-.35-4.68-.31-6.36q.31-12.94.56-26.93.02-1.17-1.15-1.14l-3.26.09q-.57.01-.57.57l-.1 22.69q-.01 1.28-.22.01-1.06-6.18-.8-12.3l.03-11.39a.58.57-90 0 1 .57-.58l5.57-.07q.61-.01.62.6l.05 35.79q0 .65-.65.65h-8.13q-.57 0-.66-.56-.74-4.4-1.39-8.74c-.2-1.33-1.35-3.1-.93-5.03q.11-.49-.03-.97l-1.22-4.45Z"/><path fill="#a7b9c1" d="M85.75 154.29q4.85-.07 9.5 1.17c4.27 1.48 3.67 6.08 3.53 10.63q-.11 3.72-2.38 5.42-.37.29.01.56 2.02 1.47 2.3 3.43c.3 1.99.67 11.04-1.41 13.57-2.89 3.51-13.04 2.56-20.08 2.41-3.94-.08-5.56-2.17-4.93-5.98q1.54 1.14 1.13 3.22a1.35 1.34 6.6 0 0 1.27 1.6l6.79.25q.81.03.11-.38l-.55-.33q-.35-.21-.3-.61.18-1.71-.49-3.25c1.68-1.46.99-12.65 1.04-18q.51-1.19-.33-2.25l-.5-3.75q1.3-3.15.44-6.53-.19-.75.57-.81l4.28-.37Zm8.08 17.99a.48.47 41.5 0 1-.06-.94q4-.8 4.31-4.87c.99-12.89-4.99-10.92-15.29-10.74q-.54.01-.54.56v33.46q0 .64.63.68c3.14.22 10.4.5 13.01-1.45 2.99-2.23 2.56-8.69 2.17-12.22q-.48-4.18-4.23-4.48Z"/><path fill="#375786" d="m46.46 160.5.38 6.08q.03.48.34.11.13-.15.28-.19-.26 6.12.8 12.3.21 1.27.22-.01l.1-22.69q0-.56.57-.57l3.26-.09q1.17-.03 1.15 1.14-.25 13.99-.56 26.93c-.04 1.68.97 4.19.31 6.36q-.15.53-.7.52l-6.27-.18q-.61-.01-.72-.6l-4.5-23.87q-.32-1.66-.3.03.04 3.01.47 5.98l-.08 18.5-5.04-.06q-.67-.01-.67-.67l-.08-33.42q-.01-.66.66-.67l7.83-.03a1.47 1.47 0 0 1 1.44 1.8q-.51 2.18 1.11 3.3ZM93.83 172.28q3.75.3 4.23 4.48c.39 3.53.82 9.99-2.17 12.22-2.61 1.95-9.87 1.67-13.01 1.45q-.63-.04-.63-.68v-33.46q0-.55.54-.56c10.3-.18 16.28-2.15 15.29 10.74q-.31 4.07-4.31 4.87a.48.47 41.5 0 0 .06.94Zm-2.174-11.097a1.62 1.62 0 0 0-1.617-1.623h-.12a1.62 1.62 0 0 0-1.623 1.617l-.012 6.98a1.62 1.62 0 0 0 1.617 1.623h.12a1.62 1.62 0 0 0 1.623-1.617l.012-6.98Zm.048 14.733a1.63 1.63 0 0 0-1.624-1.636h-.12a1.63 1.63 0 0 0-1.635 1.624l-.03 8.34a1.63 1.63 0 0 0 1.625 1.636h.12a1.63 1.63 0 0 0 1.635-1.624l.03-8.34Z"/><path fill="#899daa" fill-opacity=".996" d="M80.29 162q.04.42-.28.51-.92.25-.97-.7l-.21-3.7q-.05-.81-.83-.6-1.99.53-4-.1a.73.72-87.2 0 0-.92.84q.55 2.65-1.24 4.63-.34.38-.34.89v1.79q0 .58.52.86 1.9 1.02.38 2.64-.04-1.14-.86-1.55-.28-.14-.5.08-.11.11-.25.16-2.84-7.39-10.56-5.7-3.9.85-4.09 4.89-.36 7.63-.04 18.49c.15 5.44 4.34 5.76 8.55 5.52 3.93-.22 5.68-2.8 6.06-6.45 1.32 8.04-6.76 7.71-11.81 6.86q-.46-.08-.81-.4-2.83-2.59-2.84-4.96c-.01-5.99-2.01-21.04 3.65-24.53q.43-.26.92-.24c4.22.16 7.46-1.23 10.12 3.13q.36.6.5-.09l.26-1.38q.1-.52.45-.91 1.67-1.88 1-4.55a.74.73 82.9 0 1 .71-.92l5.64-.01a1.36 1.36 0 0 1 1.34 1.66q-.46 2.09.45 3.84Z"/><path fill="#375786" d="M80.29 162h.17l.5 3.75-1.72 1.34q-.43.33-.42.88c0 2.5-.55 17.75 1.43 18.03q.67 1.54.49 3.25-.05.4.3.61l.55.33q.7.41-.11.38l-6.79-.25a1.35 1.34 6.6 0 1-1.27-1.6q.41-2.08-1.13-3.22l.11-16.44q1.52-1.62-.38-2.64-.52-.28-.52-.86v-1.79q0-.51.34-.89 1.79-1.98 1.24-4.63a.73.72-87.2 0 1 .92-.84q2.01.63 4 .1.78-.21.83.6l.21 3.7q.05.95.97.7.32-.09.28-.51Z"/><path fill="#899daa" fill-opacity=".996" d="M91.644 168.163a1.62 1.62 0 0 1-1.623 1.617h-.12a1.62 1.62 0 0 1-1.617-1.623l.012-6.98a1.62 1.62 0 0 1 1.623-1.617h.12a1.62 1.62 0 0 1 1.617 1.623l-.012 6.98Zm-.824-6.923a.61.61 0 0 0-.594-.626l-.22-.006a.61.61 0 0 0-.625.594L89.2 168.1a.61.61 0 0 0 .594.626l.22.006a.61.61 0 0 0 .625-.594l.181-6.898Z"/><rect width="1.44" height="8.12" x="-.72" y="-4.06" fill="#050606" fill-opacity=".082" rx=".61" transform="rotate(1.5 -6244.566 3520.267)"/><path fill="#899daa" fill-opacity=".996" d="m158.54 173-.14.24q-.13.23-.36.09-1.43-.87-1.58-2.58.57-1.8.19-3.75a.36.36 0 0 0-.69-.06q-.74 2.08.29 3.85.18.27-.06.51-.37.37-.56-.12-.78-2.11-.16-4.29.13-.46.6-.57c2.53-.58 1.68 4.03 1.79 5.35q.05.58.63.58h4.49q.48 0 .52-.48.21-2.03.15-4.05c-.21-7.29-12.19-8.45-13.97-1.74q-1.79 6.73 3.9 11.36.17.14.17.36 0 .17-.04.3-3.58-1.84-4.63-5.61a.49.49 0 0 0-.96.13l-.06 6.38q0 .52.51.46l5.18-.65.34-.24q.29-.2.59-.01 4.11 2.59 2.9 7.64-.5 2.07-1.89.46-.49-.57-.4-1.31l.46.21q.2.25.49.35.47.15.49-.35c.06-1.54.66-4.57-1.44-4.96q-2.49-1.46-5.28-.53-.5.16-.5.69c-.05 3.89-.64 6.05 1.84 9.35q.3.39.78.5 4.67 1.02 9.37-.01c-.95 1.87-7.41 1.19-9.54.85q-.49-.08-.84-.43c-.45-.45-2.68-3.83-2.76-3.84q-.64-.05-.41.56.6 1.58.05 3.12-.17.48-.68.57-3.61.61-6.86-.33l.33-1 5.98.41q.58.04.57-.55-.22-11.9.16-23.79c.12-3.83-4.87-5.62-7.43-2.61q-.31.37-.74.14-3.14-1.67-7.08-1.14 2.67-1.12 5.55-.81c1.19.12 1.91 1.16 3.23-.08q.36-.34.86-.41 5.51-.79 6.26 4.85.21 1.57.59.03c1.27-5.22 5.11-4.82 9.58-4.79 2.51.01 4.34 1.75 5.83 3.54q.35.41.35.95v6.97q0 .52-.51.42-2.8-.59-5.45-.13Zm-10.74-6.19q-.13.82 0 1.62.31 1.88.7-.18.15-.84-.2-1.52a.27.27 0 0 0-.5.08Zm.89 14.63q.12-.26.03-.55-.04-.14-.19-.14h-.31q-.48 0-.38.47l.21 1.09q.11.54.48.14.16-.18.16-.38-.01-.61 0-.63ZM131.13 167.56l-2.03-4.11q-.25-.49-.75-.7-4.36-1.83-8.35-.7c-3.43.97-3.46 6.03-3.53 8.88q-.02.56.46.86 1.35.84 3.5.62l-2.93.3H116q-.15-1.26-.25-5.21-.01-.4-.33-.42-.43-.03-.39.4l.51 5.27-.29 4.73q-.04.63-.67.61l-5.3-.12q-.61-.01-.3.52l.24.4q.2.35.61.36l4.53.01q.52 0 .62.52c1.65 9.28-2.13 13.66-11.45 11.7q-4.09-.86-3.74-5.23l.49.01q.52.01.47.53c-.54 4.95 7.43 4.52 10.29 3.88q.48-.1.83-.45l1.75-1.75q.43-.42.42-1.02l-.01-7.13q0-.47-.46-.47l-3.83-.07q-.52-.01-.65.49c-.54 2.03.67 6.66-2.34 6.52a.79.78-88.9 0 1-.75-.79l.01-7.94a.8.8 0 0 1 .8-.8l6.73-.01a.76.76 0 0 0 .75-.79c-.13-3.18-.3-6.12-.12-9.29.31-5.26-7.24-6.25-10.83-4.76-2 .83-2.54 2.75-2.96 4.67-.06.28-.34.54-.63.38-.64-8.59 13.72-8.29 15.06-1.42a.58.58 0 0 0 1.14.01c1.49-7.17 15.21-7.16 15.18 1.51Zm-23.31 10.41c-1.55-.19-1.21 7.83-.46 7.79q.52-.02.54-.54l.31-6.79q.02-.41-.39-.46Z"/><path fill="#375786" d="m70.79 167.75-.12 9.85q0 .47-.48.47l-6.93-.06q-.58-.01-.65.57-.44 3.61.14 7.17-.46-.13-.69.13a.37.37 0 0 0 .06.54q.76.57 1.35.23.41-.24 0-.48l-.72-.42q.17.04.31.03.54-.04.54-.58l-.08-4.7a1.25 1.25 0 0 1 1.23-1.26l5.4-.05q.56 0 .56.56v4.75c-.38 3.65-2.13 6.23-6.06 6.45-4.21.24-8.4-.08-8.55-5.52q-.32-10.86.04-18.49.19-4.04 4.09-4.89 7.72-1.69 10.56 5.7Zm-7.167-.365a.6.6 0 0 0-.586-.613l-.08-.002a.6.6 0 0 0-.614.586l-.106 4.679a.6.6 0 0 0 .586.613l.08.002a.6.6 0 0 0 .614-.586l.106-4.679ZM99.79 186.25l-.29-12.46q2.01-2.15.29-4.54l-.04-1.79c.29.16.57-.1.63-.38.42-1.92.96-3.84 2.96-4.67 3.59-1.49 11.14-.5 10.83 4.76-.18 3.17-.01 6.11.12 9.29a.76.76 0 0 1-.75.79l-6.73.01a.8.8 0 0 0-.8.8L106 186a.79.78-88.9 0 0 .75.79c3.01.14 1.8-4.49 2.34-6.52q.13-.5.65-.49l3.83.07q.46 0 .46.47l.01 7.13q.01.6-.42 1.02l-1.75 1.75q-.35.35-.83.45c-2.86.64-10.83 1.07-10.29-3.88q.05-.52-.47-.53l-.49-.01Zm8.96-18.587a1.35 1.35 0 0 0-1.339-1.361l-.36-.003a1.35 1.35 0 0 0-1.361 1.338l-.04 4.48a1.35 1.35 0 0 0 1.339 1.361l.36.003a1.35 1.35 0 0 0 1.361-1.338l.04-4.48ZM131.13 167.56l.12 21.02q0 .35.35.39l.36.03-.71 1.21c-1.7.16-6.06.57-6.3-1.04q-.1-.72-.75-.4-.48.23-.7.73-.24.54-.76.8-2.22 1.1-4.62.1a1.99 1.98 7.1 0 1-1.19-1.52c-.63-4.04-1.49-11.92 2.57-14.34q2.97-1.09 5.14-3.35.33-.34.29-.82l-.26-3.05q-.04-.52-.49-.78l-.42-.24q-.63-.36-.7.36-.04.37.23.59l-.25.25q-.11-.3-.57-.25-.53.06-.45.59.47 2.91-1.59 4.57-2.15.22-3.5-.62-.48-.3-.46-.86c.07-2.85.1-7.91 3.53-8.88q3.99-1.13 8.35.7.5.21.75.7l2.03 4.11Zm-7.63 11.15-.46.04.11-.35q.12-.38-.2-.14l-.35.25q-.33.25-.34.67c0 1.77-.99 6.93 1.53 7.11a.74.73-78.8 0 0 .75-.51q1-3.2.21-6.46-.12-.51.06-1.01.19-.54-.13-.99-.37-.52-.85-.09-.58.53-.33 1.48ZM156.25 170.79l.21-.04q.15 1.71 1.58 2.58.23.14.36-.09l.14-.24q1 .68 1.48 1.57l3.24 3.87q.36.43.35.99l-.2 8.06q-.01.48-.29.86l-1.62 2.15q-4.7 1.03-9.37.01-.48-.11-.78-.5c-2.48-3.3-1.89-5.46-1.84-9.35q0-.53.5-.69 2.79-.93 5.28.53v4.75q-.09.74.4 1.31 1.39 1.61 1.89-.46 1.21-5.05-2.9-7.64-.3-.19-.59.01l-.34.24-.04-.71q.04-.13.04-.3 0-.22-.17-.36-5.69-4.63-3.9-11.36c1.78-6.71 13.76-5.55 13.97 1.74q.06 2.02-.15 4.05-.04.48-.52.48h-4.49q-.58 0-.63-.58c-.11-1.32.74-5.93-1.79-5.35q-.47.11-.6.57-.62 2.18.16 4.29.19.49.56.12.24-.24.06-.51ZM140.79 190c-.12-2.28-.16-21.96-.56-22.3q-.51-.42-.51.24l-.04 22.31-6.93-.04-.54-1.46.04-26.29q3.94-.53 7.08 1.14.43.23.74-.14c2.56-3.01 7.55-1.22 7.43 2.61q-.38 11.89-.16 23.79.01.59-.57.55l-5.98-.41Z"/><path fill="#8ba7d7" d="M80.96 165.75q.84 1.06.33 2.25-.16-.39-.79-.55a.61.61 0 0 0-.75.59c0 4.39-.99 14.14.5 17.96-1.98-.28-1.43-15.53-1.43-18.03q-.01-.55.42-.88l1.72-1.34Z"/><path fill="#899daa" fill-opacity=".996" d="M108.71 172.143a1.35 1.35 0 0 1-1.361 1.338l-.36-.003a1.35 1.35 0 0 1-1.339-1.361l.04-4.48a1.35 1.35 0 0 1 1.361-1.338l.36.003a1.35 1.35 0 0 1 1.338 1.361l-.039 4.48Zm-1.36.537a2.89.72 90.4 0 0 .74-2.885 2.89.72 90.4 0 0-.7-2.895 2.89.72 90.4 0 0-.74 2.885 2.89.72 90.4 0 0 .7 2.895Z"/><path fill="#5877a3" d="m119.5 174.54-1-.08q.88-.19 1.51-.68.64-.49-.15-.63l-2.36-.44 2.93-.3q2.06-1.66 1.59-4.57-.08-.53.45-.59.46-.05.57.25l-.21 3.84q-.03.6.51.34.79-.36.7-1.21-.03-.32.05-.62.47-1.74-.8-2.6-.27-.22-.23-.59.07-.72.7-.36l.42.24q.45.26.49.78l.26 3.05q.04.48-.29.82-2.17 2.26-5.14 3.35Z"/><rect width="1.28" height="5.88" x="-.64" y="-2.94" fill="#050606" fill-opacity=".082" rx=".6" transform="rotate(1.3 -7447.958 2858.292)"/><path fill="#474a48" fill-opacity=".706" d="M147.8 166.81a.27.27 0 0 1 .5-.08q.35.68.2 1.52-.39 2.06-.7.18-.13-.8 0-1.62Z"/><path fill="#282a25" fill-opacity=".416" d="m116 172.71-.46.04-.51-5.27q-.04-.43.39-.4.32.02.33.42.1 3.95.25 5.21Z"/><path fill="#050606" fill-opacity=".082" d="m156.46 170.75-.21.04q-1.03-1.77-.29-3.85a.36.36 0 0 1 .69.06q.38 1.95-.19 3.75ZM123.29 167.25q1.27.86.8 2.6-.08.3-.05.62.09.85-.7 1.21-.54.26-.51-.34l.21-3.84.25-.25Z"/><path fill="#282a25" fill-opacity=".416" d="m140.79 190-.33 1-.71-.04q-.13-.35-.07-.71l.04-22.31q0-.66.51-.24c.4.34.44 20.02.56 22.3Z"/><path fill="#899daa" fill-opacity=".996" d="M99.79 169.25q1.72 2.39-.29 4.54-.61-2.33.29-4.54ZM91.675 184.256a1.63 1.63 0 0 1-1.635 1.624h-.12a1.63 1.63 0 0 1-1.624-1.636l.029-8.34a1.63 1.63 0 0 1 1.635-1.624h.12a1.63 1.63 0 0 1 1.624 1.636l-.029 8.34Zm-.938-8.105a.65.65 0 0 0-.649-.65l-.2-.001a.65.65 0 0 0-.651.649l-.014 7.94a.65.65 0 0 0 .649.65l.2.001a.65.65 0 0 0 .651-.649l.014-7.94ZM118.5 174.46l1 .08c-4.06 2.42-3.2 10.3-2.57 14.34a1.99 1.98 7.1 0 0 1.19 1.52q2.4 1 4.62-.1.52-.26.76-.8.22-.5.7-.73.65-.32.75.4c.24 1.61 4.6 1.2 6.3 1.04q.75.62 1.5 0l6.93.04q-.06.36.07.71l-.5.31q-.36.23-.79.23h-13.4q-.58 0-.56-.58.01-.16.03-.3.07-.45-.32-.2-3.18 2-7.07.77-.54-.17-.62-.72c-.18-1.32-.83-1.99-.83-3.29-.01-4.72-.83-10.54 2.81-12.72ZM160.02 174.57q2.7 1.35 4.2 3.68.25.4.26.88c.08 3.94 1.34 9.3-2.98 11.37l1.62-2.15q.28-.38.29-.86l.2-8.06q.01-.56-.35-.99l-3.24-3.87Z"/><rect width="1.5" height="9.24" x="-.75" y="-4.62" fill="#050606" fill-opacity=".082" rx=".65" transform="rotate(.1 -103156.142 51644.79)"/><path fill="#899daa" fill-opacity=".996" d="M123.04 178.75q-.62 3.01-.15 6.16a.45.44-41.6 0 0 .87.05q.83-3.08-.26-6.25-.25-.95.33-1.48.48-.43.85.09.32.45.13.99-.18.5-.06 1.01.79 3.26-.21 6.46a.74.73-78.8 0 1-.75.51c-2.52-.18-1.53-5.34-1.53-7.11q.01-.42.34-.67l.35-.25q.32-.24.2.14l-.11.35Z"/><path fill="#050606" fill-opacity=".082" d="M107.36 185.76c-.75.04-1.09-7.98.46-7.79q.41.05.39.46l-.31 6.79q-.02.52-.54.54ZM155.29 180.5c2.1.39 1.5 3.42 1.44 4.96q-.02.5-.49.35-.29-.1-.49-.35.27-2.31-.46-4.46v-.5Z"/><path fill="#474a48" fill-opacity=".706" d="M148.69 182.07q0 .2-.16.38-.37.4-.48-.14l-.21-1.09q-.1-.47.38-.47h.31q.15 0 .19.14.09.29-.03.55-.01.02 0 .63Z"/><path fill="#5877a3" d="M155.29 181q.73 2.15.46 4.46l-.46-.21V181Z"/><path fill="#899daa" fill-opacity=".996" d="m62.75 185.75.72.42q.41.24 0 .48-.59.34-1.35-.23a.37.37 0 0 1-.06-.54q.23-.26.69-.13Z"/><path fill="#474a48" fill-opacity=".706" d="m132.21 188.75.54 1.46q-.75.62-1.5 0l.71-1.21.25-.25Z"/></svg>