<svg xmlns="http://www.w3.org/2000/svg" viewBox="0 0 1200 800"><path fill="#e92a36" d="M623.06 279.26c-15.71-2.24-30.08-2.31-46.83.07q-.55.08-.79-.43l-22.89-47.76a.98.97-24.9 0 1 .48-1.3c29.19-13.19 64.39-12.78 93.49-.26q1.3.56.69 1.84l-22.43 46.92a1.65 1.65 0 0 1-1.72.92Z"/><path fill="#c00" d="M481.69 286.81q-1.26-.97-1.99-1.75a.84.83-49 0 1-.07-1.04q17.87-25.85 44.54-42.4a1.49 1.49 0 0 1 1.92.3l35.59 41.42q.75.87.19 2.07-.28.6-1.57 1.39-18.28 11.28-30.1 29.17c-.9 1.36-2.16 2.63-3.27 3.72a.86.85-49.4 0 1-1.11.09q-22.31-16.21-44.13-32.97ZM672.12 319.07c-9.89-13.64-18.43-23.67-32.81-32.38q-2.59-1.57-.57-3.94 16.56-19.44 33.32-38.68 1.46-1.67 2.87-2.51.51-.3 1.01.01 24.61 15.49 43 40.49.98 1.33 1.36 2.41a.89.88 61.9 0 1-.3 1.01q-21.27 16.16-42.65 32.13-1.63 1.22-3.3 1.98a1.59 1.57 59.8 0 1-1.93-.52ZM698.91 387.72a1.62 1.62 0 0 1-2.23-1.16q-5.32-26.53-15.9-51.42a.96.96 0 0 1 .46-1.24l54.4-26.27a1.11 1.11 0 0 1 1.48.53q12.06 25.66 21.82 52.27a1.17 1.16 68 0 1-.62 1.47l-59.41 25.82ZM442.07 362.09a1.76 1.75-68.1 0 1-.94-2.22q9.69-26.11 21.51-51.34a1.53 1.52 25.4 0 1 2.04-.72l53.62 25.88a1.43 1.43 0 0 1 .7 1.84q-10.27 24.64-15.72 50.77-.46 2.24-2.56 1.33l-58.65-25.54Z"/><path fill="#a20000" d="M421.07 464.74a.78.78 0 0 1-.77-.66q-.34-2.14-.12-4.57 3.34-35.42 13.14-70.23a1.27 1.27 0 0 1 1.52-.89l63.96 15.58a2.05 2.05 0 0 1 1.54 2.27c-2.69 19.2-2.95 37.6-2.82 56.94q.01 1.57-1.55 1.56h-74.9ZM766.7 389.19q.4.55.46 1.34.13 1.59.23 1.96 8.82 31.84 12.3 64.71c.23 2.15.66 4.36-.02 6.33q-.42 1.22-1.71 1.22h-73.97a1.44 1.44 0 0 1-1.44-1.43c-.08-19.25-.07-37.82-2.97-56.77a2.35 2.34 78.7 0 1 1.76-2.64l63.55-15.39a1.74 1.73-24.6 0 1 1.81.67Z"/><path fill="#e92a36" d="m611.38 560.76 17.69-50.92a.68.68 0 0 1 .66-.46l13.77.17a.7.7 0 0 1 .69.7l-.17 69.26q0 .53-.53.52l-11.41-.1q-.67-.01-.67-.68c.14-14.04-.65-28.54.55-42.46a.37.37 0 0 0-.72-.14c-.59 1.79-.86 3.74-1.46 5.42q-6.61 18.59-12.96 37.26a.81.79-81.1 0 1-.74.55l-9.35.17a.89.88 80 0 1-.85-.6l-13.61-39.16q-1.14-3.28-1.12.19l.15 38.71a.8.8 0 0 1-.8.8L579 580q-.5 0-.5-.5v-69.49a.55.54-89.5 0 1 .55-.55l13.86.06q.48 0 .64.45l17.75 50.79q.04.1.08 0ZM714.89 550.88c.26-1.96-.49-4.08-.44-5.79q.59-17.54-.03-34.83a.78.78 0 0 1 .79-.81l12.05.08q.48 0 .48.48l.03 69.3q0 .58-.57.58l-10.95.15a1.4 1.39 77.2 0 1-1.28-.81l-20.31-45.16a.28.28 0 0 0-.53.12l.18 45.14q0 .63-.63.64l-11.79.04a.38.38 0 0 1-.38-.38l-.05-69.48q0-.65.64-.65h14.17q.46 0 .64.42l17.8 40.99a.1.09-54 0 0 .18-.03ZM753.77 537.54l18.56-.12q.42-.01.42.41v10.67q0 .5-.5.5H753.5a.5.5 0 0 0-.5.5v18.24a.56.56 0 0 0 .56.56q12.15-.06 23.47-.04.3 0 .9.19.56.17.79-.26a.63.63 0 0 1 1.19.28l.13 10.88q.01.65-.64.65h-37.66q-1.01 0-1.01-1.01l.02-69.03q0-.48.48-.48l37.12.03a.65.64-90 0 1 .64.65l.01 9.56q0 .72-.72.72l-24.67.09a.61.61 0 0 0-.61.61v15.63a.77.77 0 0 0 .77.77Z"/><path fill="#a20000" d="m432.66 556.5.18 22.83a.67.66-.4 0 1-.67.67h-11.42q-.75 0-.75-.75V510.5a1 1 0 0 1 1-1q10.14-.04 20.72.14c12.77.22 21.62 8.32 21.84 21 .18 10.19-4.72 21.04-15.58 23.25a.63.62 62 0 0-.32 1.05q8.6 8.73 16.95 17.58c1.75 1.86 2.13 3.76 2.17 6.17q.02.93-.9 1.1c-3.67.7-9.8 1.35-12.6-1.82q-9.3-10.56-19.71-21.83a.53.52 23.4 0 0-.91.36Zm.09-33.86-.06 19.7a2.73 2.73 0 0 0 2.72 2.74l3.34.01a11.97 11.97 0 0 0 12.01-11.93v-1.22a11.97 11.97 0 0 0-11.93-12.01l-3.34-.01a2.73 2.73 0 0 0-2.74 2.72ZM486.25 521v16a.5.5 0 0 0 .5.5h18.48a.5.5 0 0 1 .5.5l.06 10.5a.5.5 0 0 1-.5.5h-18.54a.5.5 0 0 0-.5.5v18.29a.5.5 0 0 0 .5.5l25.42-.06a.5.5 0 0 1 .5.49l.26 10.77a.5.5 0 0 1-.5.51h-38.18a.5.5 0 0 1-.5-.5V510a.5.5 0 0 1 .5-.5h37.25a.5.5 0 0 1 .5.5v10a.5.5 0 0 1-.5.5h-24.75a.5.5 0 0 0-.5.5ZM521.38 510.22a1 1 0 0 1 1-1l21.24-.07a30.95 25.66 89.8 0 1 25.76 30.86l.04 8.84a30.95 25.66 89.8 0 1-25.56 31.04l-21.24.07a1 1 0 0 1-1-1l-.24-68.74Zm12.33 10.76.08 47.1a1.13 1.13 0 0 0 1.13 1.13l6.65-.01a18.75 15.1 89.9 0 0 15.07-18.78l-.02-11.86a18.75 15.1 89.9 0 0-15.13-18.72l-6.65.01a1.13 1.13 0 0 0-1.13 1.13Z"/><rect width="12.8" height="70.46" x="656.98" y="509.5" fill="#e92a36" rx=".37"/></svg>